<mxfile host="Electron" modified="2023-11-26T14:27:50.623Z" agent="Mozilla/5.0 (Macintosh; Intel Mac OS X 10_15_7) AppleWebKit/537.36 (KHTML, like Gecko) draw.io/21.2.8 Chrome/112.0.5615.165 Electron/24.2.0 Safari/537.36" etag="G8NxzV0GdkP9PVzjQDP9" version="21.2.8" type="device">
  <diagram name="페이지-1" id="rKyS5bkUUjPHAylTvcfs">
    <mxGraphModel dx="2177" dy="708" grid="1" gridSize="10" guides="1" tooltips="1" connect="1" arrows="1" fold="1" page="1" pageScale="1" pageWidth="1200" pageHeight="1600" math="0" shadow="0">
      <root>
        <mxCell id="0" />
        <mxCell id="1" parent="0" />
        <mxCell id="eMT0vumo1_mFRorj7Jos-27" value="" style="rounded=1;whiteSpace=wrap;html=1;fillColor=none;dashed=1;strokeWidth=2;" vertex="1" parent="1">
          <mxGeometry x="-120" y="97.5" width="310" height="230" as="geometry" />
        </mxCell>
        <mxCell id="eMT0vumo1_mFRorj7Jos-28" value="" style="rounded=1;whiteSpace=wrap;html=1;fillColor=none;dashed=1;strokeWidth=2;" vertex="1" parent="1">
          <mxGeometry x="-64.99000000000001" y="143.5" width="200" height="140" as="geometry" />
        </mxCell>
        <mxCell id="eMT0vumo1_mFRorj7Jos-31" style="edgeStyle=orthogonalEdgeStyle;rounded=0;orthogonalLoop=1;jettySize=auto;html=1;exitX=1;exitY=0.5;exitDx=0;exitDy=0;entryX=0;entryY=0.5;entryDx=0;entryDy=0;startArrow=classic;startFill=1;" edge="1" parent="1" source="eMT0vumo1_mFRorj7Jos-17" target="eMT0vumo1_mFRorj7Jos-27">
          <mxGeometry relative="1" as="geometry" />
        </mxCell>
        <mxCell id="eMT0vumo1_mFRorj7Jos-34" style="edgeStyle=orthogonalEdgeStyle;rounded=0;orthogonalLoop=1;jettySize=auto;html=1;exitX=0.5;exitY=1;exitDx=0;exitDy=0;startArrow=classic;startFill=1;" edge="1" parent="1" source="eMT0vumo1_mFRorj7Jos-17" target="eMT0vumo1_mFRorj7Jos-33">
          <mxGeometry relative="1" as="geometry" />
        </mxCell>
        <mxCell id="eMT0vumo1_mFRorj7Jos-17" value="" style="rounded=1;whiteSpace=wrap;html=1;fillColor=none;dashed=1;strokeWidth=2;" vertex="1" parent="1">
          <mxGeometry x="-520" y="97.5" width="310" height="230" as="geometry" />
        </mxCell>
        <mxCell id="eMT0vumo1_mFRorj7Jos-20" style="edgeStyle=orthogonalEdgeStyle;rounded=0;orthogonalLoop=1;jettySize=auto;html=1;exitX=1;exitY=0.5;exitDx=0;exitDy=0;entryX=0;entryY=0.5;entryDx=0;entryDy=0;startArrow=classic;startFill=1;" edge="1" parent="1" source="eMT0vumo1_mFRorj7Jos-10" target="eMT0vumo1_mFRorj7Jos-17">
          <mxGeometry relative="1" as="geometry" />
        </mxCell>
        <mxCell id="eMT0vumo1_mFRorj7Jos-10" value="" style="rounded=1;whiteSpace=wrap;html=1;fillColor=none;dashed=1;strokeWidth=2;" vertex="1" parent="1">
          <mxGeometry x="-1130" y="97.5" width="500" height="230" as="geometry" />
        </mxCell>
        <mxCell id="eMT0vumo1_mFRorj7Jos-3" value="Backend Application" style="shape=image;verticalLabelPosition=bottom;labelBackgroundColor=default;verticalAlign=top;aspect=fixed;imageAspect=0;image=data:image/png,iVBORw0KGgoAAAANSUhEUgAAAGAAAABgCAYAAADimHc4AAAACXBIWXMAAAsTAAALEwEAmpwYAAAKZklEQVR4nO2daXAUxxWAJ3ecVI7K4VSSyvEvyW//TuxUwGz3iiMGOc7p3L4SBxPHSZxUVEmVA5pegcQRwMRgDDZIGGODy4ABC3XvroTEIXSCkNAthO773u3Ua7Rid7TS7s707Mwo81W9KpU0O+p5b7r79XuvexXFxcXFxcXFxcXFxcUpbClc/WkSWH6vspQhgeX3+oq8KwjFT6sM7VAZPqsyXKEy1EAY6iMUTRKGp2d/biYUX1MZOiWupWgDYQiBosxom0rx3wjFTypLiayLGR9Ti/BqlaE8oWiKw4RhbkgoCqkUVaoU78z2e3BWVeaHjbaTnF7+cZWhbsLwecXpZPGs9xPmfYAwtI9QNGRY4QlEZaifULzfRz3f41x5n542E4qfiRh3c9GKLypOJKvw/o9CF1YZumm20hfuHbhKZfgx6HnJtjvvHc9HCEXtcwal+PeK44YZhp9VGe6wTPHaXkFRJ7wMuy/e96FE7QeDxX4WM8UpiPGdoiarFU4WFFTno2jNQu3PKrz/g/N6LEWhnKD3y4qd2Vi44uuE4RPWKxgna4iCeC4mofin8a73MfQHxa4Q6llHGB6wXqk4NaGoRy1Ca2OdBVQT71qVoYBiN+5MVni75Ypk+kW4wRQRGHoI9T6y2HW+oge/otiFf19Y81mV4mKrFUhkGYLhc4Ti+sWvQU8pdiDbv+pLsIiyWmnEZHmvYbfWAKes1r3iC2R8U2W4xWrlEJPl9ap/8JnwNM8LrovuJRPZ/lWfsEz54IrZ28XEUsTnz+Ddo00cOF67Mfbv1LPOsjF/IQ9hqUmw5TUeoabrPY0B8H5LvJ2lNOGSRSS/8nkeDofmDDAxPcJz/KuiDIB6CgoyP5BWAzjd1SRJyu7SR/nY1CDXcrjizzHXZfu93073IosvddlR8iPeM9rM4wFDUvS1KkNqOsMLA0tf+T+cm3Tj0T5UqzEArk6LAVSKj1utHGKy7Cp9dFHlA6HwDN9anHnXABSHc4tXfsFU5UPE0GrlEJPlYPkGPjLZx5Phjep/anqBN9PceP4S9/dP1m3hM6EpniyX2t/SGADtMM0AkEyxWkHExMm2rifIU+X2SEOsASiqNEX52nTc0hEvf/uaGtfNTIZQeJpvCay5ez+KQnklnk9KNwCk7axXFpYqr5Zv4K2DVdwoMGdojPqAVOVDQsLSBDqTK7CAaugr5bI4W78z5v4qRc9JNUC2H3/XaqURg7Kt+GH+7o3tCV1LPVTdPhv7/yg+LNUAKsN7rVYg0RG53HfpCX6uYRdv7i8XPrtZgFFNm4hzgpn32G3VmxdcJ+IzL19+ih+qeE744uA+Bppf5ZWdZ8QKdSo0wdMFBOk2B1ZH9QA0CalMaeUk6Vbw9pJHROKDNb0iFNo8cJX3jbXx0amBmIiknfjvxd/EPMOm8/hbcgzAUF46lL730mPc33yAd480cidypPLvmmfyrJRkAHNzvPmVf+VN/Ze53RmfHlr076dvbNU8G/qdYeVDgZKUKuU4su/yk7x9sIY7gZ7RloQGKGktiH1GiohhA4j6fMmKhyySv+mASGw7hau3Tia8prarKOY5VYryjfcAip+W7b009V/hTmJ8eogHmg8mvC5ObuCcYQNAZE+W8nde+AnvGrnJnYa/+QBvGahIeB14aRoDXDbeAxg6I+fNX+tI5Q9P9vKXLv42Kdd3ZLJXOwQ1Ge8BFFXKWJHKjLukk5N1mzlt2p/UtVMz45oegLplGMBw8uV840vcibQMVAiHYXCiK6nrIYkT++yoT4IBcK8R5e8p+1VaQwKymJwZ43vKfs1P1G5K+jPTocnY56doyLABZreC6jZAXU+AO5HjtRtjyhB1GmDSUgOIyYuHudO42H5MtB9Wtqm6qxovaMLSIaj81jvcabQNVotxH7y2ZKsiIvSPt9tnEs7xr9SdY7WKgfFOsVaB9he3HEr58x1D17UGuGmZGwoBNicxNNHNXyz7xdzQCeN5qtzoKdbq4aplCzFIjDiF0akBvvfS47M9d5V4k/VQ2vq6ZhLGpy0LRcDb4ATGpodEVi3S7gutR3TfK044eqtlwbjesVZud/rH22OyWFApYcRr05amSNm4pzccDW+WnWkbrBJpz0h7d5X+jA9P9ui+Hyw2N0dv1rhTI7rMsAFeoJ7P60nI2Nn/r+kqjEmgQ3Wz0TQo5Kxjx38Ugq1bilUpST1ehNnAW3qmfocoRYy0E97aZgn5iaLGvfJD0XMGoDg3VQOAZ2EnOofrRdI/tp1eXn37nIS7h/nu0p/HGoBinzQD+PzeVaka4NZwHbcDofCM8Gy04zMsFKGaTQaQ156ngyLstbQwC2p5rKa5/4pI/GvbBsa43s2k/R+orNa8/YOgM8XK0sRTN/K4VfSOtfKj1Vlx25UbfEhqCUz/eIeImmrG/z2KbFItzoXNDun2hDqH6/nb10js3t0oebHsl+IamZyqy403/HxHugFmy9MbUjFCOtKQ4XCI1/eW8PyKvyzalmM1/xIbq2XSMVTLfVEelRCK6/UeBih9g8ZrV5/lZhDmYTHxnWvYyf9z4ceLtgF6Q2nbUfEpmcCumHjzC5wpp5iFni1KtV3npTzw1My4iC/B3JJI6RE5dPVPpuwFACDPHUf5HXAapGImhKE/pmIAWGVCnF3PG9Y2WC2iqqBIrRuZaP6542KaMwfN24wxZwDPesVsYJsqYbgxFSPAIiWREULhaX5r+Dova3uDH63K4rnBtUnfPyLbin8gKthkj/XRXOumYg0xX/moQbrruRBwJrOeLf/RwxFky+p7SzhtfFlssMgNfD9lhUcEdsFc7jghKhnMpKzt6DyXMyLZFGUo6UTvUQUHy9eLjJNeZZOochfauE+6WxmP0al+/lbtCwu2RWX4mJJuSAB/TZzDbFCRJMU3HXpM5/ANng6geht2wUeHrecL6tvEMr6adgMIIzDPSrP2DpDZkEFB5fNCCXomciP1oFDrDzmCxdo3++wPWaL8u0ZAW5NRJvjjJa354uEgUgq+eU6cyQyUDmEE8DTMnEy1izlwV0HpB8ufmb+4Wkgo2qJYjTiyjKFAosbGK/Moac03XelQrzk+PSzGcTh0Ceo94aw38LYgh3vgynq9DoBfxncRSGHTmWWfghKMxRo8OHE7YTk3cYjAoUw5wQc/o9iJRMdWLhUDqBS1WTbpGjm4Nfq4xwgXWo847c1vyfav+IZiZ+Do4njDEUzCxS2HReUBFLFean8zpfCC9YJqbHVA92LA+EgoClqvNCxL/LYb8xMBXweiMrTJzHUCSYOoDO22jbej/5wJ1Oc4xVM8SBh+WFkKiLCFo465RG/a1tMxHLqw8albKqRcZZaT2BGRT4AvQrPR4X8qRW2QTElbPN8O3Dl13fNEqol+6W+8Hz0ObVH+n/Ex733iTCKKetKg+AGVoVegctm06gWnkhPMvAcySypDm1WKyqHC2LDC4R4UXSEM58D4bnrSfCnhK8z4nI+h5bDRQaV4m0rxu2AYGDrE7k3YQkvRJPx853dgNHxaXAufYd5lcA+rn8PFxcXFxcXFxcXFxUWJ4n99JEWqxma+gwAAAABJRU5ErkJggg==;" vertex="1" parent="1">
          <mxGeometry x="-1057" y="143.5" width="96" height="96" as="geometry" />
        </mxCell>
        <mxCell id="eMT0vumo1_mFRorj7Jos-5" value="" style="shape=image;verticalLabelPosition=bottom;labelBackgroundColor=default;verticalAlign=top;aspect=fixed;imageAspect=0;image=data:image/svg+xml,PHN2ZyB4bWxuczp4bGluaz0iaHR0cDovL3d3dy53My5vcmcvMTk5OS94bGluayIgeG1sbnM9Imh0dHA6Ly93d3cudzMub3JnLzIwMDAvc3ZnIiB4bWw6c3BhY2U9InByZXNlcnZlIiBzdHlsZT0iZW5hYmxlLWJhY2tncm91bmQ6bmV3IDAgMCAzMDAuOCA3ODsiIHZpZXdCb3g9IjAgMCAzMDAuOCA3OCIgeT0iMHB4IiB4PSIwcHgiIGlkPSJMYXllcl8xIiB2ZXJzaW9uPSIxLjEiPiYjeGE7IDxzdHlsZSB0eXBlPSJ0ZXh0L2NzcyI+JiN4YTsgIC5zdDB7ZmlsbDp1cmwoI1NWR0lEXzFfKTt9JiN4YTsJLnN0MXtmaWxsOnVybCgjU1ZHSURfMl8pO30mI3hhOwkuc3Qye29wYWNpdHk6MC44O2ZpbGw6dXJsKCNTVkdJRF8zXyk7ZW5hYmxlLWJhY2tncm91bmQ6bmV3ICAgIDt9JiN4YTsJLnN0M3tvcGFjaXR5OjAuODtmaWxsOnVybCgjU1ZHSURfNF8pO2VuYWJsZS1iYWNrZ3JvdW5kOm5ldyAgICA7fSYjeGE7CS5zdDR7b3BhY2l0eTowLjg7ZmlsbDp1cmwoI1NWR0lEXzVfKTtlbmFibGUtYmFja2dyb3VuZDpuZXcgICAgO30mI3hhOwkuc3Q1e2ZpbGw6dXJsKCNTVkdJRF82Xyk7fSYjeGE7CS5zdDZ7b3BhY2l0eTowLjg7ZmlsbDp1cmwoI1NWR0lEXzdfKTtlbmFibGUtYmFja2dyb3VuZDpuZXcgICAgO30mI3hhOwkuc3Q3e29wYWNpdHk6MC4zO2ZpbGw6dXJsKCNTVkdJRF84Xyk7ZW5hYmxlLWJhY2tncm91bmQ6bmV3ICAgIDt9JiN4YTsJLnN0OHtvcGFjaXR5OjAuMztmaWxsOnVybCgjU1ZHSURfOV8pO2VuYWJsZS1iYWNrZ3JvdW5kOm5ldyAgICA7fSYjeGE7CS5zdDl7b3BhY2l0eTowLjM7ZmlsbDp1cmwoI1NWR0lEXzEwXyk7ZW5hYmxlLWJhY2tncm91bmQ6bmV3ICAgIDt9JiN4YTsJLnN0MTB7b3BhY2l0eTowLjM7ZmlsbDp1cmwoI1NWR0lEXzExXyk7ZW5hYmxlLWJhY2tncm91bmQ6bmV3ICAgIDt9JiN4YTsJLnN0MTF7ZmlsbDp1cmwoI1NWR0lEXzEyXyk7fSYjeGE7CS5zdDEye29wYWNpdHk6MC4zO2ZpbGw6dXJsKCNTVkdJRF8xM18pO2VuYWJsZS1iYWNrZ3JvdW5kOm5ldyAgICA7fSYjeGE7CS5zdDEze29wYWNpdHk6MC44O2ZpbGw6dXJsKCNTVkdJRF8xNF8pO2VuYWJsZS1iYWNrZ3JvdW5kOm5ldyAgICA7fSYjeGE7CS5zdDE0e2ZpbGw6dXJsKCNTVkdJRF8xNV8pO30mI3hhOwkuc3QxNXtmaWxsOnVybCgjU1ZHSURfMTZfKTt9JiN4YTsJLnN0MTZ7ZmlsbDojMjgyRTM4O30mI3hhOwkuc3QxN3tmaWxsOiMzMEI5OUU7fSYjeGE7IDwvc3R5bGU+JiN4YTsgPG1ldGFkYXRhPiYjeGE7ICAmI3hhOyAgICYjeGE7ICAgJiN4YTsgICAmI3hhOyAgICYjeGE7ICAmI3hhOyA8L21ldGFkYXRhPiYjeGE7IDxnPiYjeGE7ICA8bGluZWFyR3JhZGllbnQgZ3JhZGllbnRUcmFuc2Zvcm09Im1hdHJpeCgxIDAgMCAtMSAwIDExMi4zMDU1KSIgeTI9IjYxLjEyNDMiIHgyPSIyLjA5ODEiIHkxPSI2OS43NDIiIHgxPSIxMTAuNTY5MiIgZ3JhZGllbnRVbml0cz0idXNlclNwYWNlT25Vc2UiIGlkPSJTVkdJRF8xXyI+JiN4YTsgICA8c3RvcCBzdHlsZT0ic3RvcC1jb2xvcjojMDA5N0NFIiBvZmZzZXQ9IjAuMjk4NiI+JiN4YTsgICA8L3N0b3A+JiN4YTsgICA8c3RvcCBzdHlsZT0ic3RvcC1jb2xvcjojMDk5OUM1IiBvZmZzZXQ9IjAuMzc5MSI+JiN4YTsgICA8L3N0b3A+JiN4YTsgICA8c3RvcCBzdHlsZT0ic3RvcC1jb2xvcjojMjI5REFEIiBvZmZzZXQ9IjAuNTExOSI+JiN4YTsgICA8L3N0b3A+JiN4YTsgICA8c3RvcCBzdHlsZT0ic3RvcC1jb2xvcjojNDJBMzhGIiBvZmZzZXQ9IjAuNjQ2OSI+JiN4YTsgICA8L3N0b3A+JiN4YTsgICA8c3RvcCBzdHlsZT0ic3RvcC1jb2xvcjojNURBRDgyIiBvZmZzZXQ9IjAuNzM1MiI+JiN4YTsgICA8L3N0b3A+JiN4YTsgICA8c3RvcCBzdHlsZT0ic3RvcC1jb2xvcjojQTFDNjYxIiBvZmZzZXQ9IjAuOTIzOSI+JiN4YTsgICA8L3N0b3A+JiN4YTsgICA8c3RvcCBzdHlsZT0ic3RvcC1jb2xvcjojQkVEMTUzIiBvZmZzZXQ9IjEiPiYjeGE7ICAgPC9zdG9wPiYjeGE7ICA8L2xpbmVhckdyYWRpZW50PiYjeGE7ICA8cGF0aCBkPSJNMTA4LjMsMTcuM2MtMi41LTAuNC04LTAuNS0xOC45LDEuOGMtMS4zLDAuMy0yLjYsMC41LTMuOSwwLjRjLTEuNC0wLjItMi45LTAuNS00LjItMC45JiMxMDsmIzk7JiM5O2MtNi0yLjEtMTAuOS0xLjQtMTMuOCwwLjFjLTEuNywwLjktMy4yLDIuMy00LjMsMy45Yy0xLjgsMi41LTUuNiwxMC0xMC43LDEyYy0yLjksMS45LTYsMy44LTguOCw2LjZjLTEuNywxLjgtMi4yLDYuMS02LjgsMTAuMyYjMTA7JiM5OyYjOTtjLTQuNSw2LjctMTAuMiwxMi41LTE2LjksMTdjLTguNiw2LjEtMTUuOSw4LTE1LjksOHMxOS4yLDUuNCw0MC4yLTQuN2MxNi03LjcsMjQuMy0yMi42LDI2LjItMjUuOUw4MSwyOGMwLjktMS42LDIuNi0zLjgsNC4yLTQuNiYjMTA7JiM5OyYjOTtjMC41LTAuMywxLTAuNSwxLjEtMC42YzEuMi0wLjYsMi40LTEuMSwzLjYtMS41YzcuMy0yLjcsMTQuOS0yLjksMTguNC0zLjNDMTA4LjcsMTcuOSwxMDguNywxNy40LDEwOC4zLDE3LjN6IiBjbGFzcz0ic3QwIj4mI3hhOyAgPC9wYXRoPiYjeGE7ICA8bGluZWFyR3JhZGllbnQgZ3JhZGllbnRUcmFuc2Zvcm09Im1hdHJpeCgxIDAgMCAtMSAwIDExMi4zMDU1KSIgeTI9IjY5LjQyNiIgeDI9IjEwMS43NzU4IiB5MT0iOTcuOTAwMiIgeDE9Ii0zLjM4NzIiIGdyYWRpZW50VW5pdHM9InVzZXJTcGFjZU9uVXNlIiBpZD0iU1ZHSURfMl8iPiYjeGE7ICAgPHN0b3Agc3R5bGU9InN0b3AtY29sb3I6IzNENjVBRiIgb2Zmc2V0PSI4LjE5OTAwMGUtMDIiPiYjeGE7ICAgPC9zdG9wPiYjeGE7ICAgPHN0b3Agc3R5bGU9InN0b3AtY29sb3I6IzIzNzJCOCIgb2Zmc2V0PSIwLjIzMDUiPiYjeGE7ICAgPC9zdG9wPiYjeGE7ICAgPHN0b3Agc3R5bGU9InN0b3AtY29sb3I6IzAwQjhCQiIgb2Zmc2V0PSIwLjUwNTgiPiYjeGE7ICAgPC9zdG9wPiYjeGE7ICA8L2xpbmVhckdyYWRpZW50PiYjeGE7ICA8cGF0aCBkPSJNMTA4LjMsMTcuM2MtMi41LTAuNC04LTAuNS0xOC45LDEuOGMtMS4zLDAuMy0yLjYsMC41LTMuOSwwLjRjLTEuNC0wLjItMi45LTAuNS00LjItMC45JiMxMDsmIzk7JiM5O2MtNi4xLTIuMS0xMC44LTEuNS0xMy44LDAuMWMtMS43LDAuOS0zLjIsMi4zLTQuMywzLjljLTEuOCwyLjUtNS42LDEwLTEwLjcsMTJjLTUuOC01LjUtMTAuOS0xMC4yLTE1LjgtMTQuMyYjMTA7JiM5OyYjOTtjLTIuOC0yLjItNS41LTQuNC03LjgtNS45Yy01LjctNC0xMS42LTcuNi0xNy44LTEwLjdDOC4zLDIuNSw1LjUsMS40LDIuNCwwLjJDMS4xLTAuMiwwLjMsMC40LDAuMSwxLjVDMCwxLjgtMC4xLDIuOCwwLjUsNC40JiMxMDsmIzk7JiM5O0MyLDguNiwzLjksMTIuNiw2LjEsMTYuNUM3LDE4LjEsOCwxOS43LDksMjEuNGM0LjksNy44LDEwLjYsMTUsMTcsMjEuNGMxLjMsMS4zLDIuNiwyLjUsNCwzLjZjMS43LDEuNCwzLjQsMi43LDUuMiwzLjkmIzEwOyYjOTsmIzk7YzAuMiwwLjEsMSwwLjYsMS42LDFjMS4yLDAuNiwyLjcsMS40LDMuNywxLjhjNCwxLjksOC40LDIuOCwxMi44LDIuOGM2LjQsMC4yLDExLjYtMS45LDE0LjItNS40YzEuMS0xLjUsMi4xLTMsMy00LjZMODEsMjgmIzEwOyYjOTsmIzk7YzAuOS0xLjYsMi42LTMuOCw0LjItNC42YzAuNS0wLjMsMS0wLjUsMS4xLTAuNmMxLjEtMC41LDEuMS0wLjQsMi4zLTAuOGM3LjQtMi43LDE2LjMtMy42LDE5LjgtNGMwLjEsMCwwLjEsMCwwLjItMC4xJiMxMDsmIzk7JiM5O2MwLjEtMC4xLDAuMS0wLjEsMC4xLTAuMmMwLTAuMSwwLTAuMi0wLjEtMC4yQzEwOC41LDE3LjQsMTA4LjQsMTcuMywxMDguMywxNy4zeiIgY2xhc3M9InN0MSI+JiN4YTsgIDwvcGF0aD4mI3hhOyAgPGxpbmVhckdyYWRpZW50IGdyYWRpZW50VHJhbnNmb3JtPSJtYXRyaXgoMSAwIDAgLTEgMCAxMTIuMzA1NSkiIHkyPSI5NC45NTYiIHgyPSI1Ny4wODYiIHkxPSIxMTAuNDI0MyIgeDE9Ii00LjI0MDA4MGUtMDIiIGdyYWRpZW50VW5pdHM9InVzZXJTcGFjZU9uVXNlIiBpZD0iU1ZHSURfM18iPiYjeGE7ICAgPHN0b3Agc3R5bGU9InN0b3AtY29sb3I6IzAwMDAwMCIgb2Zmc2V0PSIwLjEyOTciPiYjeGE7ICAgPC9zdG9wPiYjeGE7ICAgPHN0b3Agc3R5bGU9InN0b3AtY29sb3I6IzAwMzM0QiIgb2Zmc2V0PSIwLjMyNzciPiYjeGE7ICAgPC9zdG9wPiYjeGE7ICAgPHN0b3Agc3R5bGU9InN0b3AtY29sb3I6IzAwNjE5MCIgb2Zmc2V0PSIwLjUyNzYiPiYjeGE7ICAgPC9zdG9wPiYjeGE7ICAgPHN0b3Agc3R5bGU9InN0b3AtY29sb3I6IzAwN0ZCQiIgb2Zmc2V0PSIwLjY3MjMiPiYjeGE7ICAgPC9zdG9wPiYjeGE7ICAgPHN0b3Agc3R5bGU9InN0b3AtY29sb3I6IzAwOEFDQyIgb2Zmc2V0PSIwLjc0NTciPiYjeGE7ICAgPC9zdG9wPiYjeGE7ICA8L2xpbmVhckdyYWRpZW50PiYjeGE7ICA8cGF0aCBkPSJNMCwyLjFDMCwyLDAuMSwxLjgsMCwxLjdDMC4xLDEuOCwwLjEsMiwwLDIuMXoiIGNsYXNzPSJzdDIiPiYjeGE7ICA8L3BhdGg+JiN4YTsgIDxsaW5lYXJHcmFkaWVudCBncmFkaWVudFRyYW5zZm9ybT0ibWF0cml4KDEgMCAwIC0xIDAgMTEyLjMwNTUpIiB5Mj0iMTExLjIzODIiIHgyPSI2Ny40OTIzIiB5MT0iMTExLjIzODIiIHgxPSIxNC4yODY1IiBncmFkaWVudFVuaXRzPSJ1c2VyU3BhY2VPblVzZSIgaWQ9IlNWR0lEXzRfIj4mI3hhOyAgIDxzdG9wIHN0eWxlPSJzdG9wLWNvbG9yOiMwMDAwMDAiIG9mZnNldD0iMC4xMjk3Ij4mI3hhOyAgIDwvc3RvcD4mI3hhOyAgIDxzdG9wIHN0eWxlPSJzdG9wLWNvbG9yOiMwMDMzNEIiIG9mZnNldD0iMC4zMjc3Ij4mI3hhOyAgIDwvc3RvcD4mI3hhOyAgIDxzdG9wIHN0eWxlPSJzdG9wLWNvbG9yOiMwMDYxOTAiIG9mZnNldD0iMC41Mjc2Ij4mI3hhOyAgIDwvc3RvcD4mI3hhOyAgIDxzdG9wIHN0eWxlPSJzdG9wLWNvbG9yOiMwMDdGQkIiIG9mZnNldD0iMC42NzIzIj4mI3hhOyAgIDwvc3RvcD4mI3hhOyAgIDxzdG9wIHN0eWxlPSJzdG9wLWNvbG9yOiMwMDhBQ0MiIG9mZnNldD0iMC43NDU3Ij4mI3hhOyAgIDwvc3RvcD4mI3hhOyAgPC9saW5lYXJHcmFkaWVudD4mI3hhOyAgPHBhdGggZD0iTTQuOSwxQzQuOCwxLDQuNywwLjksNC42LDFDNC44LDEsNC45LDEuMSw1LjEsMS4yQzUuMSwxLjEsNSwxLjEsNC45LDF6IiBjbGFzcz0ic3QzIj4mI3hhOyAgPC9wYXRoPiYjeGE7ICA8bGluZWFyR3JhZGllbnQgZ3JhZGllbnRUcmFuc2Zvcm09Im1hdHJpeCgxIDAgMCAtMSAwIDExMi4zMDU1KSIgeTI9IjExMC41MDExIiB4Mj0iNjIuMzU2MyIgeTE9IjExMC41MDExIiB4MT0iMTUuMDYxOSIgZ3JhZGllbnRVbml0cz0idXNlclNwYWNlT25Vc2UiIGlkPSJTVkdJRF81XyI+JiN4YTsgICA8c3RvcCBzdHlsZT0ic3RvcC1jb2xvcjojMDAwMDAwIiBvZmZzZXQ9IjAuMTI5NyI+JiN4YTsgICA8L3N0b3A+JiN4YTsgICA8c3RvcCBzdHlsZT0ic3RvcC1jb2xvcjojMDAzMzRCIiBvZmZzZXQ9IjAuMzI3NyI+JiN4YTsgICA8L3N0b3A+JiN4YTsgICA8c3RvcCBzdHlsZT0ic3RvcC1jb2xvcjojMDA2MTkwIiBvZmZzZXQ9IjAuNTI3NiI+JiN4YTsgICA8L3N0b3A+JiN4YTsgICA8c3RvcCBzdHlsZT0ic3RvcC1jb2xvcjojMDA3RkJCIiBvZmZzZXQ9IjAuNjcyMyI+JiN4YTsgICA8L3N0b3A+JiN4YTsgICA8c3RvcCBzdHlsZT0ic3RvcC1jb2xvcjojMDA4QUNDIiBvZmZzZXQ9IjAuNzQ1NyI+JiN4YTsgICA8L3N0b3A+JiN4YTsgIDwvbGluZWFyR3JhZGllbnQ+JiN4YTsgIDxwYXRoIGQ9Ik02LjcsMS44Yy0wLjEsMC0wLjItMC4xLTAuMi0wLjFjMC4xLDAuMSwwLjMsMC4xLDAuNSwwLjJDNi44LDEuOCw2LjcsMS44LDYuNywxLjh6IiBjbGFzcz0ic3Q0Ij4mI3hhOyAgPC9wYXRoPiYjeGE7ICA8bGluZWFyR3JhZGllbnQgZ3JhZGllbnRUcmFuc2Zvcm09Im1hdHJpeCgxIDAgMCAtMSAwIDExMi4zMDU1KSIgeTI9Ijg1LjA5NDIiIHgyPSI1NC4zNjg0IiB5MT0iOTguMjMxMiIgeDE9IjUuODUwMiIgZ3JhZGllbnRVbml0cz0idXNlclNwYWNlT25Vc2UiIGlkPSJTVkdJRF82XyI+JiN4YTsgICA8c3RvcCBzdHlsZT0ic3RvcC1jb2xvcjojMjQ4M0M1IiBvZmZzZXQ9IjAuMTI5NyI+JiN4YTsgICA8L3N0b3A+JiN4YTsgICA8c3RvcCBzdHlsZT0ic3RvcC1jb2xvcjojMjQ4NkM3IiBvZmZzZXQ9IjAuMTY3MiI+JiN4YTsgICA8L3N0b3A+JiN4YTsgICA8c3RvcCBzdHlsZT0ic3RvcC1jb2xvcjojMjlCMURGIiBvZmZzZXQ9IjAuNjc2Ij4mI3hhOyAgIDwvc3RvcD4mI3hhOyAgIDxzdG9wIHN0eWxlPSJzdG9wLWNvbG9yOiMyQkMyRTgiIG9mZnNldD0iMC45MzUyIj4mI3hhOyAgIDwvc3RvcD4mI3hhOyAgPC9saW5lYXJHcmFkaWVudD4mI3hhOyAgPHBhdGggZD0iTTQwLjcsMzUuN2MzLjksMC42LDgsMC4yLDExLjctMS4yYy0zLjUtMy4zLTYuOC02LjMtOS45LTljLTEuNi0xLjQtMy4xLTIuNy00LjUtMy45Yy0wLjEtMC4xLTAuMi0wLjEtMC4yLTAuMiYjMTA7JiM5OyYjOTtjLTAuNC0wLjQtMC44LTAuNi0xLjEtMC45Yy0wLjEtMC4xLTAuMi0wLjItMC4yLTAuMkMzMy43LDE4LDMxLDE2LDI4LjgsMTQuNEMyMi45LDEwLjMsMTcsNi41LDExLDMuN2MtMC41LTAuMy0xLTAuNS0xLjYtMC44JiMxMDsmIzk7JiM5O0M5LjIsMi44LDkuMSwyLjgsOC45LDIuN0MzMiwxNS40LDM5LjQsMjYuOSw0MC43LDM1Ljd6IiBjbGFzcz0ic3Q1Ij4mI3hhOyAgPC9wYXRoPiYjeGE7ICA8bGluZWFyR3JhZGllbnQgZ3JhZGllbnRUcmFuc2Zvcm09Im1hdHJpeCgxIDAgMCAtMSAwIDExMi4zMDU1KSIgeTI9IjEwNy4zNTA1IiB4Mj0iNTYuMzI4NCIgeTE9IjEwNy4zNTA1IiB4MT0iOS4wMzQzIiBncmFkaWVudFVuaXRzPSJ1c2VyU3BhY2VPblVzZSIgaWQ9IlNWR0lEXzdfIj4mI3hhOyAgIDxzdG9wIHN0eWxlPSJzdG9wLWNvbG9yOiMwMDAwMDAiIG9mZnNldD0iMC4xMjk3Ij4mI3hhOyAgIDwvc3RvcD4mI3hhOyAgIDxzdG9wIHN0eWxlPSJzdG9wLWNvbG9yOiMwMDMzNEIiIG9mZnNldD0iMC4zMjc3Ij4mI3hhOyAgIDwvc3RvcD4mI3hhOyAgIDxzdG9wIHN0eWxlPSJzdG9wLWNvbG9yOiMwMDYxOTAiIG9mZnNldD0iMC41Mjc2Ij4mI3hhOyAgIDwvc3RvcD4mI3hhOyAgIDxzdG9wIHN0eWxlPSJzdG9wLWNvbG9yOiMwMDdGQkIiIG9mZnNldD0iMC42NzIzIj4mI3hhOyAgIDwvc3RvcD4mI3hhOyAgIDxzdG9wIHN0eWxlPSJzdG9wLWNvbG9yOiMwMDhBQ0MiIG9mZnNldD0iMC43NDU3Ij4mI3hhOyAgIDwvc3RvcD4mI3hhOyAgPC9saW5lYXJHcmFkaWVudD4mI3hhOyAgPHBhdGggZD0iTTAuOSw1LjVDMC43LDUuMiwwLjYsNC44LDAuNCw0LjRDMC42LDQuNywwLjcsNS4xLDAuOSw1LjV6IiBjbGFzcz0ic3Q2Ij4mI3hhOyAgPC9wYXRoPiYjeGE7ICA8bGluZWFyR3JhZGllbnQgZ3JhZGllbnRUcmFuc2Zvcm09Im1hdHJpeCgxIDAgMCAtMSAwIDExMi4zMDU1KSIgeTI9IjExMC4wNTczIiB4Mj0iMy41NjYwNTBlLTAyIiB5MT0iMTEwLjA1NzMiIHgxPSIzLjU2MDA0OWUtMDIiIGdyYWRpZW50VW5pdHM9InVzZXJTcGFjZU9uVXNlIiBpZD0iU1ZHSURfOF8iPiYjeGE7ICAgPHN0b3Agc3R5bGU9InN0b3AtY29sb3I6IzY4MkM5MCIgb2Zmc2V0PSIwIj4mI3hhOyAgIDwvc3RvcD4mI3hhOyAgIDxzdG9wIHN0eWxlPSJzdG9wLWNvbG9yOiM4MTdDQjkiIG9mZnNldD0iMC40OTYiPiYjeGE7ICAgPC9zdG9wPiYjeGE7ICAgPHN0b3Agc3R5bGU9InN0b3AtY29sb3I6I0ZGRkZGRiIgb2Zmc2V0PSIxIj4mI3hhOyAgIDwvc3RvcD4mI3hhOyAgPC9saW5lYXJHcmFkaWVudD4mI3hhOyAgPHBhdGggZD0iTTAsMi4zYzAtMC4xLDAtMC4xLDAuMS0wLjFDMC4xLDIuMiwwLjEsMi4yLDAsMi4zeiIgY2xhc3M9InN0NyI+JiN4YTsgIDwvcGF0aD4mI3hhOyAgPGxpbmVhckdyYWRpZW50IGdyYWRpZW50VHJhbnNmb3JtPSJtYXRyaXgoMSAwIDAgLTEgMCAxMTIuMzA1NSkiIHkyPSIxMTEuNzY3NSIgeDI9IjExNy42NTI1IiB5MT0iMTExLjc2NzUiIHgxPSIyMjguNDQzMyIgZ3JhZGllbnRVbml0cz0idXNlclNwYWNlT25Vc2UiIGlkPSJTVkdJRF85XyI+JiN4YTsgICA8c3RvcCBzdHlsZT0ic3RvcC1jb2xvcjojNjgyQzkwIiBvZmZzZXQ9IjAiPiYjeGE7ICAgPC9zdG9wPiYjeGE7ICAgPHN0b3Agc3R5bGU9InN0b3AtY29sb3I6IzgxN0NCOSIgb2Zmc2V0PSIwLjQ5NiI+JiN4YTsgICA8L3N0b3A+JiN4YTsgICA8c3RvcCBzdHlsZT0ic3RvcC1jb2xvcjojRkZGRkZGIiBvZmZzZXQ9IjEiPiYjeGE7ICAgPC9zdG9wPiYjeGE7ICA8L2xpbmVhckdyYWRpZW50PiYjeGE7ICA8cGF0aCBkPSJNMi41LDAuMUMzLjIsMC40LDMuOSwwLjcsNC42LDFDMy45LDAuNywzLjIsMC40LDIuNSwwLjF6IiBjbGFzcz0ic3Q4Ij4mI3hhOyAgPC9wYXRoPiYjeGE7ICA8bGluZWFyR3JhZGllbnQgZ3JhZGllbnRUcmFuc2Zvcm09Im1hdHJpeCgxIDAgMCAtMSAwIDExMi4zMDU1KSIgeTI9IjEwOC45Njk3IiB4Mj0iMjEuNzg3MSIgeTE9IjEwOC45Njk3IiB4MT0iNDIuNzQ3OCIgZ3JhZGllbnRVbml0cz0idXNlclNwYWNlT25Vc2UiIGlkPSJTVkdJRF8xMF8iPiYjeGE7ICAgPHN0b3Agc3R5bGU9InN0b3AtY29sb3I6IzY4MkM5MCIgb2Zmc2V0PSIwIj4mI3hhOyAgIDwvc3RvcD4mI3hhOyAgIDxzdG9wIHN0eWxlPSJzdG9wLWNvbG9yOiM4MTdDQjkiIG9mZnNldD0iMC40OTYiPiYjeGE7ICAgPC9zdG9wPiYjeGE7ICAgPHN0b3Agc3R5bGU9InN0b3AtY29sb3I6I0ZGRkZGRiIgb2Zmc2V0PSIxIj4mI3hhOyAgIDwvc3RvcD4mI3hhOyAgPC9saW5lYXJHcmFkaWVudD4mI3hhOyAgPHBhdGggZD0iTTAsMi4zQzAsMywwLjIsMy43LDAuNCw0LjRDMC4yLDMuNywwLDMsMCwyLjN6IiBjbGFzcz0ic3Q5Ij4mI3hhOyAgPC9wYXRoPiYjeGE7ICA8bGluZWFyR3JhZGllbnQgZ3JhZGllbnRUcmFuc2Zvcm09Im1hdHJpeCgxIDAgMCAtMSAwIDExMi4zMDU1KSIgeTI9IjEwOS45NzEyIiB4Mj0iMTE1LjgzMjIiIHkxPSIxMDkuOTcxMiIgeDE9IjIyMC42MzUiIGdyYWRpZW50VW5pdHM9InVzZXJTcGFjZU9uVXNlIiBpZD0iU1ZHSURfMTFfIj4mI3hhOyAgIDxzdG9wIHN0eWxlPSJzdG9wLWNvbG9yOiM2ODJDOTAiIG9mZnNldD0iMCI+JiN4YTsgICA8L3N0b3A+JiN4YTsgICA8c3RvcCBzdHlsZT0ic3RvcC1jb2xvcjojODE3Q0I5IiBvZmZzZXQ9IjAuNDk2Ij4mI3hhOyAgIDwvc3RvcD4mI3hhOyAgIDxzdG9wIHN0eWxlPSJzdG9wLWNvbG9yOiNGRkZGRkYiIG9mZnNldD0iMSI+JiN4YTsgICA8L3N0b3A+JiN4YTsgIDwvbGluZWFyR3JhZGllbnQ+JiN4YTsgIDxwYXRoIGQ9Ik04LjYsMi42bDAuMywwLjJjLTAuNi0wLjMtMS4zLTAuNi0yLTAuOUM3LjEsMiw3LjMsMi4xLDcuNSwyLjJDNy45LDIuMyw4LjIsMi40LDguNiwyLjZ6IiBjbGFzcz0ic3QxMCI+JiN4YTsgIDwvcGF0aD4mI3hhOyAgPGxpbmVhckdyYWRpZW50IGdyYWRpZW50VHJhbnNmb3JtPSJtYXRyaXgoMSAwIDAgLTEgMCAxMTIuMzA1NSkiIHkyPSI3Ny4zNzcyIiB4Mj0iNDIuNjcxIiB5MT0iODkuOTI1NCIgeDE9Ii0zLjY3MjciIGdyYWRpZW50VW5pdHM9InVzZXJTcGFjZU9uVXNlIiBpZD0iU1ZHSURfMTJfIj4mI3hhOyAgIDxzdG9wIHN0eWxlPSJzdG9wLWNvbG9yOiMzQjY3QUQiIG9mZnNldD0iMC4xMjk3Ij4mI3hhOyAgIDwvc3RvcD4mI3hhOyAgIDxzdG9wIHN0eWxlPSJzdG9wLWNvbG9yOiMyMjdDQUEiIG9mZnNldD0iMC41Njk3Ij4mI3hhOyAgIDwvc3RvcD4mI3hhOyAgIDxzdG9wIHN0eWxlPSJzdG9wLWNvbG9yOiMxMThBQTgiIG9mZnNldD0iMC45MzUyIj4mI3hhOyAgIDwvc3RvcD4mI3hhOyAgPC9saW5lYXJHcmFkaWVudD4mI3hhOyAgPHBhdGggZD0iTTE1LjQsMjMuM0M5LjIsMTguMywzLjQsMTEuMiwwLjksNS42YzUuOCwxNC45LDIwLjksMzYsMzQuMyw0NC44YzAuMiwwLjIsMSwwLjYsMS43LDEmIzEwOyYjOTsmIzk7YzEuNy0yLjcsNC45LTguMywzLjgtMTUuN0MzMi40LDM0LjYsMjMuNSwzMCwxNS40LDIzLjN6IiBjbGFzcz0ic3QxMSI+JiN4YTsgIDwvcGF0aD4mI3hhOyAgPGxpbmVhckdyYWRpZW50IGdyYWRpZW50VHJhbnNmb3JtPSJtYXRyaXgoMSAwIDAgLTEgMCAxMTIuMzA1NSkiIHkyPSIxMTAuODU1IiB4Mj0iNzAuNTc3NCIgeTE9IjExMC44NTUiIHgxPSIxMzMuNDU5MiIgZ3JhZGllbnRVbml0cz0idXNlclNwYWNlT25Vc2UiIGlkPSJTVkdJRF8xM18iPiYjeGE7ICAgPHN0b3Agc3R5bGU9InN0b3AtY29sb3I6IzY4MkM5MCIgb2Zmc2V0PSIwIj4mI3hhOyAgIDwvc3RvcD4mI3hhOyAgIDxzdG9wIHN0eWxlPSJzdG9wLWNvbG9yOiM4MTdDQjkiIG9mZnNldD0iMC40OTYiPiYjeGE7ICAgPC9zdG9wPiYjeGE7ICAgPHN0b3Agc3R5bGU9InN0b3AtY29sb3I6I0ZGRkZGRiIgb2Zmc2V0PSIxIj4mI3hhOyAgIDwvc3RvcD4mI3hhOyAgPC9saW5lYXJHcmFkaWVudD4mI3hhOyAgPHBhdGggZD0iTTYuNCwxLjdMNS4yLDEuMmMwLjEsMCwwLjEsMC4xLDAuMiwwLjFDNS43LDEuNCw2LDEuNSw2LjQsMS43eiIgY2xhc3M9InN0MTIiPiYjeGE7ICA8L3BhdGg+JiN4YTsgIDxsaW5lYXJHcmFkaWVudCBncmFkaWVudFRyYW5zZm9ybT0ibWF0cml4KDEgMCAwIC0xIDAgMTEyLjMwNTUpIiB5Mj0iOTQuNDg2NyIgeDI9IjQ5MDAuMTE5MSIgeTE9Ijk0LjQ4NjciIHgxPSI3NTUuOTY1MiIgZ3JhZGllbnRVbml0cz0idXNlclNwYWNlT25Vc2UiIGlkPSJTVkdJRF8xNF8iPiYjeGE7ICAgPHN0b3Agc3R5bGU9InN0b3AtY29sb3I6IzAwMDAwMCIgb2Zmc2V0PSIwLjEyOTciPiYjeGE7ICAgPC9zdG9wPiYjeGE7ICAgPHN0b3Agc3R5bGU9InN0b3AtY29sb3I6IzAwMzM0QiIgb2Zmc2V0PSIwLjMyNzciPiYjeGE7ICAgPC9zdG9wPiYjeGE7ICAgPHN0b3Agc3R5bGU9InN0b3AtY29sb3I6IzAwNjE5MCIgb2Zmc2V0PSIwLjUyNzYiPiYjeGE7ICAgPC9zdG9wPiYjeGE7ICAgPHN0b3Agc3R5bGU9InN0b3AtY29sb3I6IzAwN0ZCQiIgb2Zmc2V0PSIwLjY3MjMiPiYjeGE7ICAgPC9zdG9wPiYjeGE7ICAgPHN0b3Agc3R5bGU9InN0b3AtY29sb3I6IzAwOEFDQyIgb2Zmc2V0PSIwLjc0NTciPiYjeGE7ICAgPC9zdG9wPiYjeGE7ICA8L2xpbmVhckdyYWRpZW50PiYjeGE7ICA8cGF0aCBkPSJNMTUuNCwyMy4zYzguMSw2LjcsMTcsMTEuMiwyNS4zLDEyLjNDMzkuNCwyNi45LDMyLDE1LjMsOC45LDIuOGMtMC4xLDAtMC4yLTAuMS0wLjMtMC4yJiMxMDsmIzk7JiM5O2MtMC4zLTAuMi0wLjctMC4zLTEtMC41QzcuNCwyLDcuMiwyLDcsMS44QzYuOCwxLjgsNi43LDEuNyw2LjUsMS43QzYuMSwxLjUsNS44LDEuMyw1LjQsMS4yYy0wLjEsMC0wLjEtMC4xLTAuMi0wLjEmIzEwOyYjOTsmIzk7QzUsMS4xLDQuOSwxLDQuNywxQzQsMC43LDMuMywwLjQsMi42LDAuMUMxLjItMC4zLDAuNSwwLjQsMC4yLDEuNGMwLDAuMSwwLDAuMi0wLjEsMC40Yy0wLjEsMC4xLDAsMC4zLDAsMC41YzAsMC4xLDAsMC4xLTAuMSwwLjEmIzEwOyYjOTsmIzk7YzAsMC43LDAuMiwxLjQsMC40LDIuMWMwLjEsMC40LDAuMywwLjgsMC41LDEuMkMzLjQsMTEuMiw5LjMsMTguMywxNS40LDIzLjN6IiBjbGFzcz0ic3QxMyI+JiN4YTsgIDwvcGF0aD4mI3hhOyAgPGxpbmVhckdyYWRpZW50IGdyYWRpZW50VHJhbnNmb3JtPSJtYXRyaXgoMSAwIDAgLTEgMCAxMTIuMzA1NSkiIHkyPSI4OC4yNTgxIiB4Mj0iNDMuODQyOCIgeTE9IjEwMC44NDM2IiB4MT0iLTIuNjM4NSIgZ3JhZGllbnRVbml0cz0idXNlclNwYWNlT25Vc2UiIGlkPSJTVkdJRF8xNV8iPiYjeGE7ICAgPHN0b3Agc3R5bGU9InN0b3AtY29sb3I6IzNBNjdCMCIgb2Zmc2V0PSIwLjEyOTciPiYjeGE7ICAgPC9zdG9wPiYjeGE7ICAgPHN0b3Agc3R5bGU9InN0b3AtY29sb3I6IzM1N0ZCRCIgb2Zmc2V0PSIwLjU2MjIiPiYjeGE7ICAgPC9zdG9wPiYjeGE7ICAgPHN0b3Agc3R5bGU9InN0b3AtY29sb3I6IzMyOTBDNiIgb2Zmc2V0PSIwLjkzNTIiPiYjeGE7ICAgPC9zdG9wPiYjeGE7ICA8L2xpbmVhckdyYWRpZW50PiYjeGE7ICA8cGF0aCBkPSJNMTUuNCwyMy4zYzguMSw2LjcsMTcsMTEuMiwyNS4zLDEyLjNDMzkuNCwyNi45LDMyLDE1LjMsOC45LDIuOGMtMC4xLDAtMC4yLTAuMS0wLjMtMC4yJiMxMDsmIzk7JiM5O2MtMC4zLTAuMi0wLjctMC4zLTEtMC41QzcuNCwyLDcuMiwyLDcsMS44QzYuOCwxLjgsNi43LDEuNyw2LjUsMS43QzYuMSwxLjUsNS44LDEuMyw1LjQsMS4yYy0wLjEsMC0wLjEtMC4xLTAuMi0wLjEmIzEwOyYjOTsmIzk7QzUsMS4xLDQuOSwxLDQuNywxQzQsMC43LDMuMywwLjQsMi42LDAuMUMxLjItMC4zLDAuNSwwLjQsMC4yLDEuNGMwLDAuMSwwLDAuMi0wLjEsMC40Yy0wLjEsMC4xLDAsMC4zLDAsMC41YzAsMC4xLDAsMC4xLTAuMSwwLjEmIzEwOyYjOTsmIzk7YzAsMC43LDAuMiwxLjQsMC40LDIuMWMwLjEsMC40LDAuMywwLjgsMC41LDEuMkMzLjQsMTEuMiw5LjMsMTguMywxNS40LDIzLjN6IiBjbGFzcz0ic3QxNCI+JiN4YTsgIDwvcGF0aD4mI3hhOyAgPGxpbmVhckdyYWRpZW50IGdyYWRpZW50VHJhbnNmb3JtPSJtYXRyaXgoMSAwIDAgLTEgMCAxMTIuMzA1NSkiIHkyPSI3OC40MjIzIiB4Mj0iMTA0LjIzMTkiIHkxPSI5MS40MzkzIiB4MT0iNTYuMTU3MSIgZ3JhZGllbnRVbml0cz0idXNlclNwYWNlT25Vc2UiIGlkPSJTVkdJRF8xNl8iPiYjeGE7ICAgPHN0b3Agc3R5bGU9InN0b3AtY29sb3I6IzRFNUNBOCIgb2Zmc2V0PSIwLjE3MjQiPiYjeGE7ICAgPC9zdG9wPiYjeGE7ICAgPHN0b3Agc3R5bGU9InN0b3AtY29sb3I6IzFGQzNGMyIgb2Zmc2V0PSIwLjk5MzciPiYjeGE7ICAgPC9zdG9wPiYjeGE7ICA8L2xpbmVhckdyYWRpZW50PiYjeGE7ICA8cGF0aCBkPSJNMTA4LjMsMTcuM2MtMi41LTAuNC04LTAuNS0xOC45LDEuOGMtMS4zLDAuMy0yLjYsMC41LTMuOSwwLjRjLTEuNC0wLjItMi45LTAuNS00LjItMC45JiMxMDsmIzk7JiM5O2MtMi44LTEtNS44LTEuNS04LjgtMS40Yy0yLjEsMC4xLTQsMC44LTUuNywyYy0xLjQsMC45LTIuNSwyLjEtMy41LDMuNGMtMS44LDIuNS01LjYsMTAtMTAuNywxMmM0LjEsMy45LDEwLjMsNy4xLDE2LjIsNS4yJiMxMDsmIzk7JiM5O2M1LjYtMS45LDkuMS02LjksMTAuMi04LjZjMS4xLTEuNywyLjQtMy40LDMuNy00LjljMS45LTIsNC4zLTMuNSw2LjktNC40YzYuNi0yLjIsMTYuNi0zLjYsMTktMy44JiMxMDsmIzk7JiM5O0MxMDguNywxNy45LDEwOC43LDE3LjQsMTA4LjMsMTcuM3oiIGNsYXNzPSJzdDE1Ij4mI3hhOyAgPC9wYXRoPiYjeGE7ICA8cGF0aCBkPSJNNzUuOSwyNS41YzEsMCwxLjctMC44LDEuNy0xLjhjMC0xLTAuOC0xLjgtMS43LTEuOGMtMSwwLTEuNywwLjgtMS43LDEuOEM3NC4yLDI0LjcsNzQuOSwyNS41LDc1LjksMjUuNXoiIGNsYXNzPSJzdDE2Ij4mI3hhOyAgPC9wYXRoPiYjeGE7ICA8cGF0aCBkPSJNMTc0LjQsNDcuNmMtMy41LDAtNi44LDEuNC05LjIsMy45Yy0yLjQsMi41LTMuOCw1LjktMy44LDkuNHYzLjljMCwzLjUsMS40LDYuOSwzLjgsOS40JiMxMDsmIzk7JiM5O2MyLjQsMi41LDUuOCwzLjksOS4yLDMuOWg4LjN2LTQuOGgtOC4zYy0yLjEsMC00LjItMC44LTUuNy0yLjNjLTEuNS0xLjUtMi41LTMuNS0yLjYtNS42aDE3YzAuNiwwLDEuMS0wLjEsMS42LTAuMyYjMTA7JiM5OyYjOTtjMC41LTAuMiwxLTAuNSwxLjQtMC45YzAuNC0wLjQsMC43LTAuOSwwLjktMS40YzAuMi0wLjUsMC4zLTEuMSwwLjMtMS43YzAtMS43LTAuMy0zLjUtMS01LjFjLTAuNi0xLjYtMS42LTMuMS0yLjgtNC4zJiMxMDsmIzk7JiM5O2MtMS4yLTEuMi0yLjYtMi4yLTQuMi0yLjlDMTc3LjgsNDcuOSwxNzYuMSw0Ny42LDE3NC40LDQ3LjZ6IE0xNjYuMSw2MC4zYzAuMS0yLjEsMS00LjIsMi42LTUuNmMxLjUtMS41LDMuNi0yLjMsNS43LTIuMyYjMTA7JiM5OyYjOTtjMi4xLDAsNC4yLDAuOCw1LjcsMi4zYzEuNSwxLjUsMi41LDMuNSwyLjYsNS42SDE2Ni4xeiIgY2xhc3M9InN0MTYiPiYjeGE7ICA8L3BhdGg+JiN4YTsgIDxwYXRoIGQ9Ik0xMDQuNiw0Mi43aDMuNXYtNC44aC0zLjVjLTEuMywwLTIuNiwwLjMtMy44LDAuOGMtMS4yLDAuNS0yLjMsMS4zLTMuMiwyLjNjLTEuOCwxLjktMi45LDQuNS0yLjksNy4ydjAuNiYjMTA7JiM5OyYjOTtoLTIuOHY0LjhoMi44djI0LjNoNC44VjUzLjZoNi40di00LjhoLTYuNHYtMC42Qzk5LjUsNDUuMywxMDEuOSw0Mi43LDEwNC42LDQyLjd6IiBjbGFzcz0ic3QxNiI+JiN4YTsgIDwvcGF0aD4mI3hhOyAgPHBhdGggZD0iTTEyMC4zLDM4aC00Ljh2NDBoNC44VjM4eiIgY2xhc3M9InN0MTYiPiYjeGE7ICA8L3BhdGg+JiN4YTsgIDxwYXRoIGQ9Ik0yNzguMyw0Ny42aC00Ljh2MzAuM2g0LjhWNDcuNnoiIGNsYXNzPSJzdDE3Ij4mI3hhOyAgPC9wYXRoPiYjeGE7ICA8cGF0aCBkPSJNMTQ4LjksNjUuNmMwLDItMC44LDMuOS0yLjIsNS40Yy0xLjQsMS40LTMuMywyLjItNS4zLDIuMnMtMy45LTAuOC01LjMtMi4yYy0xLjQtMS40LTIuMi0zLjQtMi4yLTUuNHYtMTgmIzEwOyYjOTsmIzk7aC00LjZ2MThjMCwzLjMsMS4zLDYuNCwzLjYsOC43YzIuMywyLjMsNS40LDMuNiw4LjYsMy42YzMuMiwwLDYuMy0xLjMsOC42LTMuNmMyLjMtMi4zLDMuNi01LjUsMy42LTguN3YtMThoLTQuOFY2NS42eiIgY2xhc3M9InN0MTYiPiYjeGE7ICA8L3BhdGg+JiN4YTsgIDxwYXRoIGQ9Ik0yMDQuMyw0Ny42Yy0zLjIsMC02LjMsMS4zLTguNiwzLjZjLTIuMywyLjMtMy42LDUuNS0zLjYsOC43djE4aDQuOHYtMThjMC0yLDAuOC0zLjksMi4yLTUuNCYjMTA7JiM5OyYjOTtjMS40LTEuNCwzLjMtMi4yLDUuMy0yLjJjMiwwLDMuOSwwLjgsNS4zLDIuMmMxLjQsMS40LDIuMiwzLjQsMi4yLDUuNHYxOGg0Ljh2LTE4Yy0wLjEtMy4zLTEuNC02LjQtMy43LTguNyYjMTA7JiM5OyYjOTtDMjEwLjYsNDguOSwyMDcuNSw0Ny42LDIwNC4zLDQ3LjZ6IiBjbGFzcz0ic3QxNiI+JiN4YTsgIDwvcGF0aD4mI3hhOyAgPHBhdGggZD0iTTIzMC4xLDY3LjdWNTIuNGg2LjR2LTQuOGgtNi40VjM4aC00Ljd2OS43aC00LjJ2NC44aDQuMnYxNS4zYzAsMi43LDEsNS4yLDIuOSw3LjFzNC4zLDIuOSw3LDIuOWgyLjF2LTQuOCYjMTA7JiM5OyYjOTtoLTIuMWMtMS40LDAtMi43LTAuNi0zLjYtMS41QzIzMC42LDcwLjQsMjMwLjEsNjkuMSwyMzAuMSw2Ny43eiIgY2xhc3M9InN0MTYiPiYjeGE7ICA8L3BhdGg+JiN4YTsgIDxwYXRoIGQ9Ik0yOTMuNiw2Ny43VjUyLjRoNi40di00LjhoLTYuNFYzOGgtNC44djkuN2gtNC4ydjQuOGg0LjJ2MTUuM2MwLDIuNywxLDUuMiwyLjksNy4xYzEuOCwxLjksNC4zLDIuOSw3LDIuOSYjMTA7JiM5OyYjOTtoMi4xdi00LjhoLTIuMWMtMS40LDAtMi43LTAuNi0zLjYtMS42QzI5NC4xLDcwLjQsMjkzLjYsNjkuMSwyOTMuNiw2Ny43eiIgY2xhc3M9InN0MTciPiYjeGE7ICA8L3BhdGg+JiN4YTsgIDxwYXRoIGQ9Ik0yNDcuMywzOHYxMi4zYzIuMS0xLjcsNC44LTIuNiw3LjUtMi42YzMuMiwwLDYuMywxLjMsOC42LDMuNmMyLjMsMi4zLDMuNiw1LjUsMy42LDguN3Y1LjYmIzEwOyYjOTsmIzk7YzAsMy4zLTEuMyw2LjQtMy42LDguN2MtMi4zLDIuMy01LjQsMy42LTguNiwzLjZzLTYuMy0xLjMtOC42LTMuNmMtMi4zLTIuMy0zLjYtNS41LTMuNi04LjdWMzhIMjQ3LjN6IE0yNDcuMyw2Mi42djIuOSYjMTA7JiM5OyYjOTtjMCwyLDAuOCwzLjksMi4yLDUuNGMxLjQsMS40LDMuMywyLjIsNS4zLDIuMmMyLDAsMy45LTAuOCw1LjMtMi4yYzEuNC0xLjQsMi4yLTMuNCwyLjItNS40VjYwYzAtMi0wLjgtMy45LTIuMi01LjQmIzEwOyYjOTsmIzk7Yy0xLjQtMS40LTMuMy0yLjItNS4zLTIuMmMtMiwwLTMuOSwwLjgtNS4zLDIuMmMtMS40LDEuNC0yLjIsMy40LTIuMiw1LjRWNjIuNnoiIGNsYXNzPSJzdDE3Ij4mI3hhOyAgPC9wYXRoPiYjeGE7IDwvZz4mI3hhOzwvc3ZnPg==;" vertex="1" parent="1">
          <mxGeometry x="-857" y="174.5" width="177.51" height="46" as="geometry" />
        </mxCell>
        <mxCell id="eMT0vumo1_mFRorj7Jos-8" style="edgeStyle=orthogonalEdgeStyle;rounded=0;orthogonalLoop=1;jettySize=auto;html=1;exitX=1;exitY=0.5;exitDx=0;exitDy=0;startArrow=classic;startFill=1;" edge="1" parent="1" source="eMT0vumo1_mFRorj7Jos-6" target="eMT0vumo1_mFRorj7Jos-7">
          <mxGeometry relative="1" as="geometry" />
        </mxCell>
        <mxCell id="eMT0vumo1_mFRorj7Jos-6" value="" style="rounded=1;whiteSpace=wrap;html=1;fillColor=none;dashed=1;strokeWidth=2;" vertex="1" parent="1">
          <mxGeometry x="-1090" y="137.5" width="162" height="140" as="geometry" />
        </mxCell>
        <mxCell id="eMT0vumo1_mFRorj7Jos-7" value="" style="rounded=1;whiteSpace=wrap;html=1;fillColor=none;dashed=1;strokeWidth=2;" vertex="1" parent="1">
          <mxGeometry x="-867" y="137.5" width="200" height="140" as="geometry" />
        </mxCell>
        <mxCell id="eMT0vumo1_mFRorj7Jos-11" value="" style="outlineConnect=0;dashed=0;verticalLabelPosition=bottom;verticalAlign=top;align=center;html=1;shape=mxgraph.aws3.ec2_compute_container;fillColor=#F58534;gradientColor=none;" vertex="1" parent="1">
          <mxGeometry x="-1110" y="117.5" width="60" height="34.5" as="geometry" />
        </mxCell>
        <mxCell id="eMT0vumo1_mFRorj7Jos-12" value="" style="outlineConnect=0;dashed=0;verticalLabelPosition=bottom;verticalAlign=top;align=center;html=1;shape=mxgraph.aws3.ec2_compute_container;fillColor=#F58534;gradientColor=none;" vertex="1" parent="1">
          <mxGeometry x="-880" y="117.5" width="60" height="34.5" as="geometry" />
        </mxCell>
        <mxCell id="eMT0vumo1_mFRorj7Jos-9" value="ECS Service" style="outlineConnect=0;dashed=0;verticalLabelPosition=bottom;verticalAlign=top;align=center;html=1;shape=mxgraph.aws3.ecs;fillColor=#F58534;gradientColor=none;" vertex="1" parent="1">
          <mxGeometry x="-1150" y="30" width="72" height="67.5" as="geometry" />
        </mxCell>
        <mxCell id="eMT0vumo1_mFRorj7Jos-13" value="Loki" style="shape=image;verticalLabelPosition=bottom;labelBackgroundColor=default;verticalAlign=top;aspect=fixed;imageAspect=0;image=data:image/svg+xml,PHN2ZyB4bWxucz0iaHR0cDovL3d3dy53My5vcmcvMjAwMC9zdmciIGZpbGw9Im5vbmUiIHZpZXdCb3g9IjAgMCA0OCA1NiIgaGVpZ2h0PSI1NiIgd2lkdGg9IjQ4Ij4mI3hhOzxwYXRoIGZpbGw9InVybCgjcGFpbnQwX2xpbmVhcl8xNzkzMV84OTMpIiBkPSJNMTIuMDQ3OCA1NC45MjQ4TDExLjM4MzggNTAuNDY2M0w2LjkyNTI5IDUxLjEzMDRMNy42ODQxOCA1NS41ODg5TDEyLjA0NzggNTQuOTI0OFoiLz4mI3hhOzxwYXRoIGZpbGw9InVybCgjcGFpbnQxX2xpbmVhcl8xNzkzMV84OTMpIiBkPSJNNDYuOTU3IDQyLjQwMzJMNDYuMTk4MSAzOC4wMzk2TDI2Ljc1MTUgNDEuMDc1MUwyNy4zMjA2IDQ1LjQzODhMNDYuOTU3IDQyLjQwMzJaIi8+JiN4YTs8cGF0aCBmaWxsPSJ1cmwoI3BhaW50Ml9saW5lYXJfMTc5MzFfODkzKSIgZD0iTTIwLjM5NSA0Ni41NzcyTDI0Ljg1MzUgNDUuODE4M0wyNC4xODk1IDQxLjQ1NDZMMTkuNzMxIDQyLjExODZMMjAuMzk1IDQ2LjU3NzJaIi8+JiN4YTs8cGF0aCBmaWxsPSJ1cmwoI3BhaW50M19saW5lYXJfMTc5MzFfODkzKSIgZD0iTTE5LjA2NzQgNTMuNzg2NUwxOC4zMDg1IDQ5LjQyMjlMMTMuOTQ0OCA1MC4wODY5TDE0LjUxNCA1NC41NDU0TDE5LjA2NzQgNTMuNzg2NVoiLz4mI3hhOzxwYXRoIGZpbGw9InVybCgjcGFpbnQ0X2xpbmVhcl8xNzkzMV84OTMpIiBkPSJNNS44ODEzNSA0NC4yMDU1TDYuNTQ1MzkgNDguNjY0MUwxMS4wMDM5IDQ4TDEwLjMzOTkgNDMuNTQxNUw1Ljg4MTM1IDQ0LjIwNTVaIi8+JiN4YTs8cGF0aCBmaWxsPSJ1cmwoI3BhaW50NV9saW5lYXJfMTc5MzFfODkzKSIgZD0iTTI3LjY5OTcgNDcuOTA1MUwyOC40NTg2IDUyLjQ1ODVMNDguMDAwMSA0OS40MjI5TDQ3LjMzNjEgNDQuOTY0NEwyNy42OTk3IDQ3LjkwNTFaIi8+JiN4YTs8cGF0aCBmaWxsPSJ1cmwoI3BhaW50Nl9saW5lYXJfMTc5MzFfODkzKSIgZD0iTTIxLjUzMzMgNTMuNDA3TDI1Ljg5NjkgNTIuODM3OEwyNS4yMzI5IDQ4LjI4NDRMMjAuNzc0NCA0OS4wNDMzTDIxLjUzMzMgNTMuNDA3WiIvPiYjeGE7PHBhdGggZmlsbD0idXJsKCNwYWludDdfbGluZWFyXzE3OTMxXzg5MykiIGQ9Ik0xMi44MDYyIDQzLjE2MjFMMTMuNTY1IDQ3LjYyMDVMMTcuOTI4NyA0Ni45NTY2TDE3LjI2NDYgNDIuNDk4TDEyLjgwNjIgNDMuMTYyMVoiLz4mI3hhOzxwYXRoIGZpbGw9InVybCgjcGFpbnQ4X2xpbmVhcl8xNzkzMV84OTMpIiBkPSJNNy4zOTkyMSA0MS40NTQ2TDEuOTkyMDcgNS45NzYzMkwwIDYuMjYwODlMNS41MDE5NyA0MS43MzkyTDcuMzk5MjEgNDEuNDU0NloiLz4mI3hhOzxwYXRoIGZpbGw9InVybCgjcGFpbnQ5X2xpbmVhcl8xNzkzMV84OTMpIiBkPSJNOS45NjAzMiA0MS4wNzUxTDQuMDc4ODggMi45NDA2N0wyLjE4MTY0IDMuMzIwMTRMOC4wNjMwOCA0MS4zNTk3TDkuOTYwMzIgNDEuMDc1MVoiLz4mI3hhOzxwYXRoIGZpbGw9InVybCgjcGFpbnQxMF9saW5lYXJfMTc5MzFfODkzKSIgZD0iTTE0LjMyNDUgNDAuNDExMUw4LjE1ODQ3IDBMNi4yNjEyMyAwLjM3OTQxMkwxMi40MjcyIDQwLjYwMDhMMTQuMzI0NSA0MC40MTExWiIvPiYjeGE7PHBhdGggZmlsbD0idXJsKCNwYWludDExX2xpbmVhcl8xNzkzMV84OTMpIiBkPSJNMTYuODg1MiA0MC4wMzE1TDExLjE5MzUgMy4yMjUxTDkuMzkxMTEgMy41MDk2N0wxNS4wODI4IDQwLjIyMTJMMTYuODg1MiA0MC4wMzE1WiIvPiYjeGE7PHBhdGggZmlsbD0idXJsKCNwYWludDEyX2xpbmVhcl8xNzkzMV84OTMpIiBkPSJNMjEuMjQ5MSAzOS4yNzI4TDE2LjIyMTUgNi42NDAzOEwxNC4zMjQyIDYuOTI0OTVMMTkuMzUxOSAzOS42NTIzTDIxLjI0OTEgMzkuMjcyOFoiLz4mI3hhOzxwYXRoIGZpbGw9InVybCgjcGFpbnQxM19saW5lYXJfMTc5MzFfODkzKSIgZD0iTTIzLjgxMDQgMzguODkzNUwxOC41OTMgNS4wMjc4M0wxNi42OTU4IDUuMzEyNDFMMjIuMDA4MSAzOS4xNzgxTDIzLjgxMDQgMzguODkzNVoiLz4mI3hhOzxkZWZzPiYjeGE7PGxpbmVhckdyYWRpZW50IGdyYWRpZW50VW5pdHM9InVzZXJTcGFjZU9uVXNlIiB5Mj0iLTAuODAyNTAxIiB4Mj0iMS4yMzE5OCIgeTE9IjY2Ljg3NzIiIHgxPSIxMS42NDY5IiBpZD0icGFpbnQwX2xpbmVhcl8xNzkzMV84OTMiPiYjeGE7PHN0b3Agc3RvcC1jb2xvcj0iI0ZBRUQxRSIvPiYjeGE7PHN0b3Agc3RvcC1jb2xvcj0iI0YxNUIyQiIgb2Zmc2V0PSIxIi8+JiN4YTs8L2xpbmVhckdyYWRpZW50PiYjeGE7PGxpbmVhckdyYWRpZW50IGdyYWRpZW50VW5pdHM9InVzZXJTcGFjZU9uVXNlIiB5Mj0iLTUuMTYzOSIgeDI9IjI5LjU3NjgiIHkxPSI2Mi41MTU0IiB4MT0iMzkuOTkxNiIgaWQ9InBhaW50MV9saW5lYXJfMTc5MzFfODkzIj4mI3hhOzxzdG9wIHN0b3AtY29sb3I9IiNGQUVEMUUiLz4mI3hhOzxzdG9wIHN0b3AtY29sb3I9IiNGMTVCMkIiIG9mZnNldD0iMSIvPiYjeGE7PC9saW5lYXJHcmFkaWVudD4mI3hhOzxsaW5lYXJHcmFkaWVudCBncmFkaWVudFVuaXRzPSJ1c2VyU3BhY2VPblVzZSIgeTI9Ii0yLjkzNTE2IiB4Mj0iMTUuMDkxMyIgeTE9IjY0Ljc0NDUiIHgxPSIyNS41MDYzIiBpZD0icGFpbnQyX2xpbmVhcl8xNzkzMV84OTMiPiYjeGE7PHN0b3Agc3RvcC1jb2xvcj0iI0ZBRUQxRSIvPiYjeGE7PHN0b3Agc3RvcC1jb2xvcj0iI0YxNUIyQiIgb2Zmc2V0PSIxIi8+JiN4YTs8L2xpbmVhckdyYWRpZW50PiYjeGE7PGxpbmVhckdyYWRpZW50IGdyYWRpZW50VW5pdHM9InVzZXJTcGFjZU9uVXNlIiB5Mj0iLTEuODY5MjIiIHgyPSI4LjE2MzgiIHkxPSI2NS44MTA1IiB4MT0iMTguNTc4OCIgaWQ9InBhaW50M19saW5lYXJfMTc5MzFfODkzIj4mI3hhOzxzdG9wIHN0b3AtY29sb3I9IiNGQUVEMUUiLz4mI3hhOzxzdG9wIHN0b3AtY29sb3I9IiNGMTVCMkIiIG9mZnNldD0iMSIvPiYjeGE7PC9saW5lYXJHcmFkaWVudD4mI3hhOzxsaW5lYXJHcmFkaWVudCBncmFkaWVudFVuaXRzPSJ1c2VyU3BhY2VPblVzZSIgeTI9Ii0wLjgwMTI4IiB4Mj0iMS4yMjQ0OCIgeTE9IjY2Ljg3ODQiIHgxPSIxMS42Mzk0IiBpZD0icGFpbnQ0X2xpbmVhcl8xNzkzMV84OTMiPiYjeGE7PHN0b3Agc3RvcC1jb2xvcj0iI0ZBRUQxRSIvPiYjeGE7PHN0b3Agc3RvcC1jb2xvcj0iI0YxNUIyQiIgb2Zmc2V0PSIxIi8+JiN4YTs8L2xpbmVhckdyYWRpZW50PiYjeGE7PGxpbmVhckdyYWRpZW50IGdyYWRpZW50VW5pdHM9InVzZXJTcGFjZU9uVXNlIiB5Mj0iLTUuMTY1MjgiIHgyPSIyOS41ODMzIiB5MT0iNjIuNTE0MyIgeDE9IjM5Ljk5ODIiIGlkPSJwYWludDVfbGluZWFyXzE3OTMxXzg5MyI+JiN4YTs8c3RvcCBzdG9wLWNvbG9yPSIjRkFFRDFFIi8+JiN4YTs8c3RvcCBzdG9wLWNvbG9yPSIjRjE1QjJCIiBvZmZzZXQ9IjEiLz4mI3hhOzwvbGluZWFyR3JhZGllbnQ+JiN4YTs8bGluZWFyR3JhZGllbnQgZ3JhZGllbnRVbml0cz0idXNlclNwYWNlT25Vc2UiIHkyPSItMi45MzUzNyIgeDI9IjE1LjA5MSIgeTE9IjY0Ljc0NDMiIHgxPSIyNS41MDYiIGlkPSJwYWludDZfbGluZWFyXzE3OTMxXzg5MyI+JiN4YTs8c3RvcCBzdG9wLWNvbG9yPSIjRkFFRDFFIi8+JiN4YTs8c3RvcCBzdG9wLWNvbG9yPSIjRjE1QjJCIiBvZmZzZXQ9IjEiLz4mI3hhOzwvbGluZWFyR3JhZGllbnQ+JiN4YTs8bGluZWFyR3JhZGllbnQgZ3JhZGllbnRVbml0cz0idXNlclNwYWNlT25Vc2UiIHkyPSItMS44Njg2NyIgeDI9IjguMTY0MDciIHkxPSI2NS44MTAzIiB4MT0iMTguNTc4OCIgaWQ9InBhaW50N19saW5lYXJfMTc5MzFfODkzIj4mI3hhOzxzdG9wIHN0b3AtY29sb3I9IiNGQUVEMUUiLz4mI3hhOzxzdG9wIHN0b3AtY29sb3I9IiNGMTVCMkIiIG9mZnNldD0iMSIvPiYjeGE7PC9saW5lYXJHcmFkaWVudD4mI3hhOzxsaW5lYXJHcmFkaWVudCBncmFkaWVudFVuaXRzPSJ1c2VyU3BhY2VPblVzZSIgeTI9IjEuNTcxNjYiIHgyPSIwLjI4NDY5NiIgeTE9IjY1Ljc1OTciIHgxPSIxMC4xNjIzIiBpZD0icGFpbnQ4X2xpbmVhcl8xNzkzMV84OTMiPiYjeGE7PHN0b3Agc3RvcC1jb2xvcj0iI0ZBRUQxRSIvPiYjeGE7PHN0b3Agc3RvcC1jb2xvcj0iI0YxNUIyQiIgb2Zmc2V0PSIxIi8+JiN4YTs8L2xpbmVhckdyYWRpZW50PiYjeGE7PGxpbmVhckdyYWRpZW50IGdyYWRpZW50VW5pdHM9InVzZXJTcGFjZU9uVXNlIiB5Mj0iLTEuNzcyNDMiIHgyPSIyLjQwNzg1IiB5MT0iNjcuMTQzMSIgeDE9IjEzLjAxMjkiIGlkPSJwYWludDlfbGluZWFyXzE3OTMxXzg5MyI+JiN4YTs8c3RvcCBzdG9wLWNvbG9yPSIjRkFFRDFFIi8+JiN4YTs8c3RvcCBzdG9wLWNvbG9yPSIjRjE1QjJCIiBvZmZzZXQ9IjEiLz4mI3hhOzwvbGluZWFyR3JhZGllbnQ+JiN4YTs8bGluZWFyR3JhZGllbnQgZ3JhZGllbnRVbml0cz0idXNlclNwYWNlT25Vc2UiIHkyPSItNS4wMzY3IiB4Mj0iNi4zODk0MyIgeTE9IjY4LjAzMzEiIHgxPSIxNy42MzM4IiBpZD0icGFpbnQxMF9saW5lYXJfMTc5MzFfODkzIj4mI3hhOzxzdG9wIHN0b3AtY29sb3I9IiNGQUVEMUUiLz4mI3hhOzxzdG9wIHN0b3AtY29sb3I9IiNGMTVCMkIiIG9mZnNldD0iMSIvPiYjeGE7PC9saW5lYXJHcmFkaWVudD4mI3hhOzxsaW5lYXJHcmFkaWVudCBncmFkaWVudFVuaXRzPSJ1c2VyU3BhY2VPblVzZSIgeTI9Ii0xLjQwODMyIiB4Mj0iOS41NzkyNSIgeTE9IjY1LjIwOCIgeDE9IjE5LjgzMDUiIGlkPSJwYWludDExX2xpbmVhcl8xNzkzMV84OTMiPiYjeGE7PHN0b3Agc3RvcC1jb2xvcj0iI0ZBRUQxRSIvPiYjeGE7PHN0b3Agc3RvcC1jb2xvcj0iI0YxNUIyQiIgb2Zmc2V0PSIxIi8+JiN4YTs8L2xpbmVhckdyYWRpZW50PiYjeGE7PGxpbmVhckdyYWRpZW50IGdyYWRpZW50VW5pdHM9InVzZXJTcGFjZU9uVXNlIiB5Mj0iMi41NjI0NiIgeDI9IjE0LjYyODkiIHkxPSI2MS43MzkzIiB4MT0iMjMuNzM1MyIgaWQ9InBhaW50MTJfbGluZWFyXzE3OTMxXzg5MyI+JiN4YTs8c3RvcCBzdG9wLWNvbG9yPSIjRkFFRDFFIi8+JiN4YTs8c3RvcCBzdG9wLWNvbG9yPSIjRjE1QjJCIiBvZmZzZXQ9IjEiLz4mI3hhOzwvbGluZWFyR3JhZGllbnQ+JiN4YTs8bGluZWFyR3JhZGllbnQgZ3JhZGllbnRVbml0cz0idXNlclNwYWNlT25Vc2UiIHkyPSIwLjc1MTg1MSIgeDI9IjE2Ljk5MTEiIHkxPSI2Mi4xOTY3IiB4MT0iMjYuNDQ2NSIgaWQ9InBhaW50MTNfbGluZWFyXzE3OTMxXzg5MyI+JiN4YTs8c3RvcCBzdG9wLWNvbG9yPSIjRkFFRDFFIi8+JiN4YTs8c3RvcCBzdG9wLWNvbG9yPSIjRjE1QjJCIiBvZmZzZXQ9IjEiLz4mI3hhOzwvbGluZWFyR3JhZGllbnQ+JiN4YTs8L2RlZnM+JiN4YTs8L3N2Zz4=;" vertex="1" parent="1">
          <mxGeometry x="-412.14" y="152" width="94.29" height="110" as="geometry" />
        </mxCell>
        <mxCell id="eMT0vumo1_mFRorj7Jos-14" value="" style="rounded=1;whiteSpace=wrap;html=1;fillColor=none;dashed=1;strokeWidth=2;" vertex="1" parent="1">
          <mxGeometry x="-464.99" y="143.5" width="200" height="140" as="geometry" />
        </mxCell>
        <mxCell id="eMT0vumo1_mFRorj7Jos-15" value="" style="outlineConnect=0;dashed=0;verticalLabelPosition=bottom;verticalAlign=top;align=center;html=1;shape=mxgraph.aws3.ec2_compute_container;fillColor=#F58534;gradientColor=none;" vertex="1" parent="1">
          <mxGeometry x="-480" y="117.5" width="60" height="34.5" as="geometry" />
        </mxCell>
        <mxCell id="eMT0vumo1_mFRorj7Jos-18" value="ECS Service" style="outlineConnect=0;dashed=0;verticalLabelPosition=bottom;verticalAlign=top;align=center;html=1;shape=mxgraph.aws3.ecs;fillColor=#F58534;gradientColor=none;" vertex="1" parent="1">
          <mxGeometry x="-540" y="30" width="72" height="67.5" as="geometry" />
        </mxCell>
        <mxCell id="eMT0vumo1_mFRorj7Jos-21" value="http://loki:3100" style="text;html=1;strokeColor=none;fillColor=none;align=center;verticalAlign=middle;whiteSpace=wrap;rounded=0;" vertex="1" parent="1">
          <mxGeometry x="-600" y="182.5" width="60" height="30" as="geometry" />
        </mxCell>
        <mxCell id="eMT0vumo1_mFRorj7Jos-26" value="" style="shape=image;verticalLabelPosition=bottom;labelBackgroundColor=default;verticalAlign=top;aspect=fixed;imageAspect=0;image=data:image/png,iVBORw0KGgoAAAANSUhEUgAAAgAAAAEACAYAAADFkM5nAAA7t0lEQVR42u3deZhT1fkH8O97kswCM8O+ioqCgOCOG7LdZBDLz6VuuGBtq3XfrbbWVuu0tVrrVjfqbt1AGduqWKmUmQTEpbbYurGJiBuyKTD7TJL7/v4AKiqTZCa5OcnM9/M8+UNzc857TsKcc889C0BERERERERERERERERERERERERERERERERERERERERERERERERERERERERERERERERERERERERERERERERERERERERERERERERERERERERERERERERERERERERERERERERERERERERERERERERERERERERERERERERERERERERERERERERERERERERERERERERERERERERERERERERERERERERERERERERERERERERERERERERERJkntgOg1OlU+GoL9rxCgeNVcU33GUvm2Y6JiIjyEzsAeWLjKSMGGyMzAIzZ7n8/JRq/uGzm8g224yMiovzCDkAe2DxtxBGAzADQcwdvr1WR07o/ubjKdpxERJQ/jO0AKLHN00ZcBMiL2HHjDwD9RPXvNdNGXqns0BERUYrYYOSwmtNG3qiqP0v1egUe7DZsyblSAdd27ERElNvYAchRNdNG/FYhP2/HR58qW93vdIlEYrbLQEREuYuPAHLQpml7XtXOxh8ATqkZuPZxreB3S0RErWMjkWM2nzrqOwL8Ns1kTql5f+R1tstCRES5i48AckjNqcNGqPheB9AtA8mpCk7t/uSSp22Xi4iIcg87ADlizen7dC2OR/8DYI8MJltnxBxS+uR7i22Xj4iIcgsfAeSI4nj0N8hs4w8AJa66T+g5owO2y0dERLmFHYAcsHnaqIMBXOJR8vvX1DdcaLuMRESUW9gBsGzL5j3uvQB8HmZy7eapo3qmnxAREXUU7ABYtnnayBMB7O9xNj3Fr1faLisREeUOTgK0SKfCV1Ow5ztQ7JmF7Da2FLm79nl4Wa3tchMRkX0cAbCotmDElCw1/gDQo6DRnG67zERElBvYAbBIIedlNUMBOwBERASAjwCs2TRt7x6C2DoA/ixmq1CtEJ/vv9GY/KfXU+9+4mlmU+Grx6g+Lf5YXyPyv6WITb6Cpf0ff7s+i+UmIqJvyGbjQ9sRjX4HItmuf4HIr9R14TfA5ml7rgfwHwH+A2NebWpGdd/K9+ram3jtaaNGKuJTVOUgAPvVAHsArvF9Y6CpOB67DcAVWS47ERFthyMAWfbFaUPLfCicLOpeAeBQ2/F8Q1QUr7jQl1TNS92fWvxfATRheU7Za2e/iZ0JmO8DunuK+TT7DXbr+sSSz20XmIios2IHIAvWnL5P1+JYyzEAToHIEQAKbceUog8BPCFxfaLs6aXLt39j4ykjBhuRCghOQztGkkTlxrKZi9t74iEREaWJHQAPbZw2aj8D91wApwEotR1PWgT/BPC4+PQpxOVHqrgOQJc00ltT9lm/nSUSidkuGhFRZ8QOQIZpBUzt8pFHK/RKAONsx+MBF5laPaJmSreZ7/3ddoGIiDojTgLMEK2AqVk2clrNcr0G0OG24/FQ5paOinsMAHYAiIgsYAcgA2pOHXH05mVyg4juZTuWPBOyHQARUWfVIR8BaAXMpuV77ixqhsDEh8CVoSLoL0CJAmXbXdqk0PVQWS+C1YAudSFLu89Y8nGy2e8AsHHanrsa4G4AR9kuc77yRc2Aksr31tiOg4ios+kQHYCNP9yvu2lqHisG41UwHorRSG+mfQ2AhQosEFciZU8tfmP7DoE6jr92wJpLVORXAEpslz+fGVWndObS+bbjICLqbPK2A1A3dVT/uN89XoCpKhgPL4/TBT4B8AwEs1Q1KpD7ARxguw46AgHOKpux5CHbcRARdTZ5NQdAAdl82siQqF4ch3sUAF/ScfrM2BnA5VBcLhBFHnecco1CdrYdAxFRZ5RXHYCaU0dcK6q/shwGG/+MUh5IRURkQX798TXobTsEIiKijiCvOgCqnHDX4Yhk6SkOERFtL686AAIpth0DZZYCPBCIiMiCvOoAAOLajoAyTHWF7RCIiDqjvJoECCgPjvk6FehnClkFwSpVXQPIBkA3AmajCOpUNbrtYgPpCkEvuNrLNegjwAAAe0AxDEAPGwWQqHnTdiUSEXVGedUBUCDaiafgtwBYBOANAG+6rrzTPV6zVCo/bcxE4jWnDuvtGv++ojoGgkOhOBRAL68LpX73KgBXeZ0PERF9XV61p5tOHXmLiF5hO45sUeAdA7zoAvMaSrq8OvD+RQ1Zy7sCpub9UaMBPQqqRwHYH979Xq7vNmPJtdkqGxER5VsH4LQRV4vKDbbj8NhHEDwh4j5e9sSyZbaD2WbruQffx5bX0EynL4qfls1ccrPtchIRdRb51gE4W1Tutx2HB1oArTSKB0pmLl2QykFEtiggtd8bOQ4uLlXoscjcFswK1dO6zVw603YZiYg6g3zrAEwWlZdsx5FB9apyb8Cnt3Z9YkneLYfbdPJeQ8QXv1yBMwXIxBLNZgNMLp2xZIHtshERdXT51QHY0uB0hGVjrigeEn/gmtLH315nO5h0NXx/2E6xqO86FZyB9CeWro1J4MBeT779qe1yERF1ZHnVAVDH8dcMXFuH9I76te01hV7cfcbSRbYDybSak0cMU5+5BdCj00pI8M+yL6MTZc6KZttlIiLqqPKqAwAAm6ft+RqAQ23H0Q71Cv1xtxlLH8jlZ/yZUDNt5HcVeieAXdJI5o/dZiy5wHZZiIg6qjzbCRCA4nXbIbTDf0TjB3afsfT+jt74A0DZjMXPNfoCIwG5G+0v7/mbT9nzSNtlISLqqPKuA6CQ12zH0EZ3lG2MjimbuXyp7UCyqf/jb9d3m7H4YkCnoL37/fvwYM2pw3gCJBGRB/KuA+AGJF9GAOIKXNBtxpLLOvOz7G4zlr4kGt8HwNw2f1jRH+KbbrsMREQdUd7NAQCAmmkjPlHIINtxtEaBRqOYVjZzybO2Y8kVOhW+2oKR16vqVWj77+7IbjOWvGi7DEREHUnejQAAgEKesx1DArXG1Uls/L9OKhEve3Lx1Qo5WYE2nl8gd+nUQTwKmogog/KyA+AafcZ2DK1ocuF+t+yppa/aDiRXdZ+xuNKomQxgY+qf0t1rAmU8MIiIKIPy8hGAToWvJrDnZwD62Y5lOzGBnFg2Y3Euj07kjLrTRuwdh8yFon+KH6n3Rc3Qksr31tiOnYioI8jLEQCpRByCv0KAXHmJkXPY+Keu5Mml74i4DgSrU6zjrvFC95e24yYi6ijysgMAAFDziO1Gf7vX9LInFj9iu0ryTdkTy5aJGy+H6LqU6hk4a9MP9hpiO24ioo4gbzsA3Wa89wZEX4UobL5E9K2y5torbddHviqbuXyp+vB/EK1Lob4D4sZZ10REGZCXcwC22fSD4SeJytMWQ9ioqqO7P77sQ9t1ke82/WDEZFG8ACCQ5NImX9Q/uGTmu2ttx+wlx3H8AIYaNXu6gmEG6OEC3URQCFeiIrpRVb9QMUuM0SXV1dUf2I6ZiPJLXncA1HH8NbusWQHBrnYC0NO7PbbsCdv10FFs+uHw80Tlj8mvlOu7PbrkWtvxZprjOINFfMdDEQJ0IoCSNnx8jQDzVHROSUnJs7Nnz26wXR4iym153QEAgJozhp8BxcNZz1gQLn1kWXln2Ns/mzb/YPh0EZyf5LI1pQUlu8j9i6K2403Xljt938mA/kgUEyEZeCynqBHBrJhr7lywYN47tstIRLkp7zsAOhW+2pJhbwEyKovZNrpufO/uj67gsGuG6TmjA7XRulcBHJjoOhE5sfThpX+2HW97jR49OlBa2v1MgXsVILt5lI0q8KyI/iocDr9lu8z0dY7jFAHo7ff7C5JdG4vFPo5EIjHbMVPHkvcdAADY/KM9jhQ1L2QtQ5Gflz209Ebb5U6m7oej+qvERkJkqEJ3B7QfYLopUCqqjRA0CTQGlXUqukZVPlXB0qZo4ZL+j79dbyvumjOHDxfgTQW6JLjs72UPL5tiK8Z0lE8sH++KTgewV1YyVLgweNIYubyqquoL2+XvrILB4HDAfFdVJ4niEAjKUvmcAO9PiEwYUYEK13YZqGPpEB0AAKg5c3glBCdmIatPS+PNe8ifVjXZLvM3bTp/7x6mJXoMoOUAxgFo752lAlgB6CsQWRAz/qqe97/3cTbLUnvW8PNVkeggoJi48YGlj6xYn8240rHljs/cLsC5sPNvb60ozqieXz3Hdl10Jo7j7CfwXQPV49rziEchl0UiVXfYLgd1PB2mA1B/zp4D4m78XQA9vcxHIBeUPrgshYlq2aEVjr/uk8+PU9EzAZQj+Sz6dpYbixT4iwuZ2f1B71c9KCC1Zw+bDcWRrcYken7pA+/f63UsmVBeXj7MjessAPtaDkWhenvvvr2vrqysbLFdLx2cOE75JQK9Ge3/d1nn85tB8+bN22y7MNTxdJgOAADUnjX8RBWt9DCLVaWbAsOl8j3rfzjXnL5P1y7FzRcq9CJR7JzFrF0o5gJyb+mgZbOlAp4NS9adtVs/VwLvAui9o/cVmNftgeWHZ7Hs7VI+sXyMC30BkpHOaT2ArhlIZ35BYeD4l1566UvL1dMhVaDCzHfmzwDk5LQSUpkenl91oe3yUMfUoToANWfvcRREZnuWgchZZfcte8hmGbXC8dd9vvpMVVQAGGAzFgBLVeS3ZV8umymViHuRQe25e5ynrS8NbGmOSe8+Dy+rtVwPrQoGg0dA5c9oe6P9AaDzFOZlEXdpNBpduXDhwv8doOQ4Tm9jzDDEsa8CkwBMSvWZ8naW+fxm8rx587L6eKczcJzQ7QJclm46CnfvSCTyru3yUMfUsToA5w57FMD3PUp+XWmBu4vctaLZVvnqzhmxtyvuw0gyQ96CZap6Rbf73/9bphPWqfDV9hj2JgT77PgCHFd2//JnbVfAjjjOpHECdy6AVI8ybgL0UTHycHV19Rtty8spEpHjoXIOgImpfEaAJYXFhYfOmTOnxnZddSTBYPAkZGSDMp0XjoRzfoSL8leH6QDo1FEFtT1b1kLQ3aMcbii7d8UvrJQNkNpzh/0MohUAki4ZskbxN1f10u73Z3Z5ZO15w0MKt2pH74niD6X3vX+57aJ/UzAYHAWVlwH0SOHyGAR/VHVviEQiaZ926DiTxgHurwUIJrhsY9z1HbJgwT/et11XHcnUqVMLNqz/YjGA9M+sEP1uOBx+3naZqOPqMB2ATRcMnWxUXvIo+XjcxIb0uOfDj7Jdri/P2b2b3+d7DMAx2c67nepFcUXJve/fn8lNkmou2OMvUBz3rTcEr5VNf/8w24Xe3tixY0sL/IX/hmBYCpe/FXfNGQsWzPtPpuMITQxNVcHtAHb6xltxiB4ZDoe9+vfSaTlO+bkCTTYxtUmBewH3ydLS0sXctZFsydvDgL5dECn37LQ/g7/ZaPwbLhiys9/vex2CY3LgxMNUX13V4N7aC/aYXXPhiF6ZqguNx6+CILaDEwL316mjcmpUpMBfeG9Kjb/gAYV7qBeNPwBUz6+uND7ZF4oXv54tfsbG3xsCnZrwAsXHCvegSKT68kgk8m82/mRThxkBqL1o6L+hGO1F2ip6XNndHzybzfLUnD98uJj4XAC7ZDPfDFsp4h5bcvfKjGxHW3vh0CcAnPbN/2/UPbjr9JX/sl1YAHCc8hMFyVeiCHBTdaT6Z1kKa7vlaDorHAl/z24tdUyTJk3qFo+569H6kr+muGsO5vbMlCs6xAjA1jvN/T26o60rDTRn9W5p42UjBosvXg3BLjlwR5/Oa3eFebXm4qFHZ6hqboRAv5mP65NDsvn9tMZxnBKBe1vSC0WuymLjDwAaiVTdAdHxTc1NZ9uroY4tHo8fiATr/QW4j40/5ZIO0QEQEwtCYDxqxF6U2z9tzFZZai8e2scfj70EwcAcaMAz8SoR4C91Fw/91p17W5Xes+I9EX3x248BZGS2vp9EDMzPAEm4J4MAd4TDVb+3EV84HP7na6+9lrXfcmejavonfF90pu0YibbXIToAEPXu+b8gawfOaIXjh6ASgmE50HBn8uVXwWM1lw5J/+5TcPc301dp95bHGTNp0qRuCiTesEXxxubazT+xHSt5QwT9Er2vqstsx0i0Pb/tADJCxPHoVN7mxmjRi+knk5r6TZ/8FpLaGu42qAHwEYAaKBoBFALohy2NpifbBrfCCHBv7SVDakvv/OCp9ibStecHc+s2DvkE+Gr3Q2n/mQcZE4u5FwkSLEFVNMTVf8qiRfl/hDHtmKiWJfor1KdPH074o5yS9x0APWdglzrRVJZbtccbfae/V5eNctReNiSkwE8yMC2zVoG/iurzPuN/vcvtyz/b0UV6zuhAbcnG3RDHMBE5GIqjINgP3k4MNRA8Wnfpbl+U3PHhP9qTgFTArb0MfwJw7VeFwa4expxUBSrMfMw/N2HVGfntgvBcz89Q6MwmT57cNRqN7qVq9hJ1B8KYUlEtUJEGVXzmUyyPS/xfkUhkk+1Ys8FxnP4+9e0dF4wEtLcBSl0gaoB6F/KhT7E4LvH/5NIxw5MnT+4bjUbHiSs7uYK+BigFUOcCq4zB267rvmkzXsdxSnzq21uhe6mRAapaCsAvqg0C+VSNLi8qKvpXvmyulferAOov3f0g10ibdk1rg+tLb//g2vSTSUzPGdilrkvx25C0Ng95VVSnd21o+qvcv7pddxoNFw8dFPe7RwE4F5D9PCxyrZr4wWW3rlrang9vunL4br54bAW2e4RVEpMiW7s0Os6kSQI3UYdmbVNz424d5fn7uHHjegT8BTs8Q8D4ZFRVVdXiLfXi+AG/Y+A6uuV0yn7Ycq5DL7T2t0fhig/DqqurU9pMauzYsaWFgcLTXOB4ASZgywhXInEoFolgpr/AP2Pu3LnrvnlBcGLoPQi+Na9EgdmRSHWr+3GEnFCFAtclyHsj2kDhjmzrxlATJhy+h8/nngFXj0Rru2d+Xa0C84zi8c11m1/45ghVcMuGVjveilj0B+Fw+LHWEg4GgydA5ZkdvBUNR6r/t3R3ypQpZY2NzecL5ESoHoBEJyYqagB5Fsa9PxwOv9KWumkvx3G6i8j34cp3AYyDJN2MLQbFGyKYGSgMzNjReRtBJ/QJgEE7KOCT2Vylk/cjAHFj9hHxZPgfIu6CbJShrqT452jnzmECrFKVq0puX1EpaT4H6XLXik8B3Avg3rrLh05W0Z9iywmDmVYq6vvzugtGHdKeEZbutyz7sPbHQ17FlkYFALA+XhgAYKUDIOJOS1TzCtzeURr/VDiOU2RgzlLgCsAd3KYfpejc6upw0sbfcZzeIubnUJylQGkb7mR8EByswMHRltgNwWDowUDAf/2OOgIe6NGWiwOBQMpztBzHOVAgvwHiR0Ahbbi1KxXgOBUcV1babZXjlP+uT5+eD1ZWVnpytsf2pkyZUtjU0PTTpobmy0TQc8uep0k+JCgD9PtQ+X5wYqg6ruYyr1ZWOI7TXyDXQOUMAF3aUKd+CA5T4LCW5uiNjhO6t7AwcGMuHryV95MARdy9IAoPXtE6aXjV6/jrL9t1AKCXtyM+FehNXcvie5bevmJWuo3/N5XcvmJu6W0fTFLR8RBd6kH9jiwubnygvfGpYPb26fUpqLfXmVUk2q895vPJn6zFlu2qUB0kMBEF7gIwuK2fF5XpyS5xnPILBWYFFJdjyxBxexVDcXG0JbbUccp/ZK/W2m/cuHE9gsHQYwLzBiDfQXqjuoMFeu+GdV+8EQwGPT22esKEw/doamh+FSK/RntPyRSEfMZdFAwGL8lkbBWoMCEndKXArADkQgi6pJFciQBXtjRHlwaDwWmZjDMT8n4EAD7s7c38P323/y1r670O3/X7rgHa/ANrgMiZJTd/kIEDRxIru3XlQq0YvH99rblOBVcis7+ZU2qvHPJc6S1tnxQokBcgetO2/671FVj5LU+YcPgeQHxQa+8L8Peqqqq1NmKzQV08B6ConR//qFffXq1Oui0vL+/lxvEkoEdkOOweAn0wODEUamppPCtrlZWmrYdNzYRiUPqpbUdwAFReDwaDFwL4pweh+30mvgjpdd62CUDljmAwNELVvSTd+QHl5eX95scXPI0UD9Rqgz5QeTLkhIK9+vS6cMP6LzKcfPvk/QgAgH28WLqmIu95HXjN1SN6QfDDNsa21rhmXGkWGv9tpGJVU8mtK682isMgsjqzda131l49tE9bYyq9dcViCD7Ylo5I3Mpv2Rg34TkEKjrHRlwWtbfxB1Tva23oORQKDXFj+qoHjf9XBNMKC4tfgrT56OasC00MnSpw5wEZbvy/UgSVh6C42oO0BZlp/L+iOF/UPIo0RkDKy8tHunF9HZlv/LcLE2dtWPfFbCSfq5IVed0B2HjZ4O4i2kdEkemXESz2On7jtpwtol1Sj0nrjOCorret8GTv+GS63rryX37XPUygSzNY130kFvtDe+IRwext6dijIxK9G4/7whaDyx+KFuM3D+/oLcdxBqmLKqR2uFJaBBgP2F1VkkwwGDxeBY8jK42IpL2BV9YIpgWD5e3aZ8NxnKFuXKvQjsdW7YhzMoA23/R4Ia87AIUF4tmGOSKu5x0AQNty9x9Vo1O7/n7lv23WefGtH37k+lvGieirGatvI6c2/HS3g9saiyv487Y0oj61MgHQAIk6AM39+vVYbiOuvCNauaNHJZMmTeomMPOQ441yShTVgM5L9eW67rd+06FQKASVpwD4bBcnJ6neEAwG23QH7zhOb4H5B4D+bflcR5CXcwC0YmCXhqbCy13gp17lEYsbTzsA9T/bdX8Fhreh1NeW/G7V372MKVVlN372xbqKUUd0aWqoBnBQBpIUV3Az2jj0VnbTyoX1V+9+NFxoz5tWbrZRFy6wU4IxxxXpzqYOBoNnwpVf2CibCt6KRKqPz1BycUBfE0iVC/nEqH5tnbQruqPDnCQedR+GpPzvpBGQuaL6HHx4D8BnruvWBwKBLvF4fARcHKaQEwDdz0Z99u7ba0plZWVLez9/+OGHD4xF4zOQ6gZeitUqeF5E56jqSgBrYrFY3Jji3n6J76Wi5VCZCkFfG/XRStB/V5hnfD68BmBtS0tLgd/v3wUwR8DVH0Cwe5IEfFBzC4CDkcLE6C17eLz8BKCDUwywHpC/Q9znVXVxIBBYHY1GGwCUiMhwURmvwAkA9rJdk6nIuw5A7c8Gn1zfLLdBMNDLfMpiLZ96mb4r5vg2PKx6q2vh4FuBVV6G1CZ9K96rq7166JGC+D+RmZ34JtT/fNcpXW/4qE3PzLveuPIFm/UgQFlr7ymQgaVlpjtEk/3R86Zsig0ZSunPcddcvWDBP95vy6ccp/z7gCbvgChaYHBfLBb9zcsvv7x+B1dsArAaQDWA6x1nkiNw70Ke/JHeJh6N3wck3m54C/lcVK9zxX2klUlxGwG8D+CvU6ZMuaK5ofkcBa7fssTOEsVy8eGM6urwjlZefQ7gn1OnTv3dF+u/uESBG5CwE6QHhiaGTqyeX530VM4FzoILAKQyr6RJgbtjsZYbFi5cuKP9HDYB+BRAFYCKUCg0WeO4KxuPrdKRNx2A2oohfU2LO12hJ3i07e//CLTO6wOAjGgoxVK4RvV8qcid3bq2Kb1xxfq6q3Y7Dj59DUBxuumpypUA8m3SXElrb4ii1nZwVilcAS6rnl91V1s/uvVo3ZuSXqj4WMX9biQc+W+qaUci8yKjR48+oKys+9Vw9bqEG8/kiNDE0NEKHJW8OjA7Gm067ZVXXknptzdnzpxmAHeFQqG/qCsPeTrJsnWvqLhHhasT79C4dfTklvKJ5Ytc0b8hwd8cFfk5gIQdgPHjx/dR4NfJghPgfRfuMZFIJOWNy6qrq+c6jrMvYK4T4Crk6KZ7Of/DB4C6n+9SLtH4uyp6QjYOr1GR9alH13Z6Zb+uKjgotefjmNXlxo9es/0dtKbkpg/fgug1mZkLgFD9tbuMtl2mNtEE/7Dtzk60z8jV1fOr29z4A1vOVkDSu135r/HLwZFI6o3/NosWLYqGw1W/VpFzoHBtV1USoiJJGyoI7nIiE45NtfHfXnV19Wc1tZuOhuIvWS7bKoV7bFu2Z66aXxVWyBmJr9L9HMdJOMIT8AWuQNLNmeT1QGHg0LY0/ttEIpGmSKT6aoVcDq/vWtsppzsACkjdNYOvgjEvQdAnG43/1penHYDGwuK9IQikEosRvdP295BM1+Uf3aGC1zPS+VKT0U09sqD1nQy37BOez9I5B2N+e489dhynSICLk1y2Ju76jkl3j4VIpOohFcnp31woFDo86bwFxfMTwxMuq0BFuzszixYtitbUbT4FkJeyVjjRKyORSJsfNUUiVU9DkeSgNl+roxljx44tVeC8JNl8FCjwfTfdHfwikao7oGplHk8yOdsB0ArHX3/t4Ach+B0Eviw2/oDA010a1Cd7p3hH/EaX3+Tu3f82Uom4T+VSyNb74bRWX+jxemW/nF+HvZ1EjWRv28GlxaDdjatRSeMMDd93kOzuX/R7CxbM/SQTxYxEqqZvmXmfmzSOHyS55LOWWPP30mn8t1m0aFFUET9ry5773hLg/XA43P4RB6M3JEl/TGvvFfoLjwXQLcHHVQxOytQW0RPnT7wJkNczkVYm5WQHQCsGF9XFV/0Zomd6tM1vwpfC2yVlCh2SYhyPpZ9bdnT57YdviOCZtOteUFJfXHic7fKkSgWftfrmlsOd0nz2526CYqVHr4R/3ETbPYnxs6r5VQvbW2KBe2LiSseL4XC4Kr16/XqKYuQ8WDpLIpEpU6YUQnB04uqQ69oz7N+aSCTyqQDXZKF4zyONofGJ4YmvAUhwWJK2unpEgYS/MQGerq6uztghcxWocOOunAPA8zMW2iLnJgFqxaiCeq37sxj8n7UgjHo7YUMwIKXr4qi2VgftYfR3UExNOx2RUwE8Ybs4KYWq+j6k1Z9L10mTJu02b968le1NPxwOPwzg4fZ+PpHgxOC1QOvPll1Im2btf1UpeBXpPPNUCSbqNhnI9Zmui+rq6g+CE8ufhuj3M512Opqamg4EJNGjpE/79On5p0zn64r7gMD8Eh6OYrmQtA7xqUCFG9TQYkir6/f7tfI5M18WJFxyrKIZ/40tWDDvnZATmq3AsZlOu71yagRAZ8HXgLqnRPB/IoCtl4F42jES0d4pxPF5yW8+atdxubZ0rfjoTYguyMB3ENSKwe3fUjaLRBI3kvF4fFyqaVmI/tAk77/VrmRd+by9EU2aNGmXJEt8P6uaX+XNUKpxZ3iSbnpBHZL4fX3Oi5P7IpFIE6B/9rJkIm4m5lq1PgKgO97SeX5w/p5IPPy/NBwOe7MVvCKnfmM51QGoX7zLbRA9zsaw//YvMZr2krZERLQwhTgWiuTmzNHEhdM/ZeA7KK5HfILtoqTChZuwMRKVw1NNK5vGjBlTDEmw8ZLCLS4OvN2etEW03Uto4/H4HgnT3rJM1Jvjv1TnA8it5bbqJl5HLskmwrWfqGTyMcuOZKDjIq1/X60s71Q1CX9jEO+WIgeKAl7XaZvkTAeg/tc7nycGl2R5st8OX+rxzlguUlkBoMtsfyft0ayFf4Ygmu53YAxysuH8JifivI0tm4DskCqOGTNmjKcdyvYoLOxyBJDg0BvBv+bMmeP5RLBvZetKwg2+VORDr/LecteLD7Jd5oRUEj4u3LrDnzdZG83CdujZJ+Im/I2JwrM63bKioP0jZJmWEx2Aut8O2gcif7Dd8P/vBezsZXnFoCV5DOYji19Ju/WqWFEjoq+k+x24Ioe0I/usq0CFK0Ck1QsEZYWFXU6wHee3w8JZSd63su20msRLJ1V1tcchZGj3wwwRTbg7n9/v96wxMcbkVl1kiKok/o2Jt78xgeZMvVrvAGjF4CJR8yQEhdYb/q9e3b783e7dksWeRq1vSroczqdZv/vKFBUJp78cEPtqhf3fZ2oFxqxEbwtwhe0Qt1deXj4SqlMSXmTwvI3YRCXJUjaJehxBjh2yIwmHyevr69t9tkAyLS0t+fHvr41ENeFvTFxvf2OquXOQk/UvuL4gdhNE97L93P+br0A86tkogEI/SWEJYEn6OVli3H9n4Dsoay4cZGUP/LbyF/qfB1Df+hW6n+OUn5hygh5zY8m2v5X/VldXv2klOE1Uj4CBenyMqubU3g0KNCR6v2vXrp7VR0FBQU4cWZtxJvFvTI3Xv7Hc2R/Eageg7re7HC6Qi3Pgjv/bz6BFBntVbjFYkXQeQtItKnOXMe67mfgO4iKjbJclFXPnzq2HypOJrhHozUcffXQX27GGQqEQJPFSTVH1ZNlhKgSyKtH7CvXsAJ+tczV2s1X2HdaHJD4BLB6P7+1V3vE4Rtouv0dWJX5bPPuNjR8/vg9y6PRFax0AvW90wBj3TgjEdmO/45fr2Z70LnRx8g5Ibt2JtEVR0+rVEMTSfgzgSv6cAW/c25LsKT+4trb+VpshTpkypUzjeADYOtNlx9a74j5iK0ZTYJJMwpMjp06d6skQanFB8SQgd4ZnAUBVEteHa47xKm9j52CgbEhcpwrP6tTnK5hsu/Dbs9YBaNy0/kIVGWG/oW/tJWPgkZJm9w1IkomABgfb+m7SJRWIQbA27e/A53p65HMmhcPhZRD5a8J6Ac4LBoMnWQpRmpqaH0Sy89RFbolEIumcAZCWf/zjH6uR+A6t/xdffDExxeTaRIFTbJW7NT7FqwkvED1+9OjRgRSTS9nRRx/dRT1sCG0Kh8PLkXiy5xDHcQ70Im8DzanfmJUOQM0tA3sr3F/afs6f5HWwJjrpLQ1SsboBgn8l2RJ3jN45tNDG95ORMhqtTX9LZvSyXY42lvkqJNtOVuVRx5mU9c2BQk7oxqS7NCo+DgR892Q7tm9KuKoCgLry40znOWnSpN0hsNU5a1XPvj3fBLA5wSW9S0u7Z3z3wtrahrMh6Gm7/B5RQOYnukDEZPw3NmHCpL0VONJ24bdnpQPgV/NTCHrYv8tP+OpR9/tdR3hVB2LwlyT5F9c3NubwLnKJKRBP9ztQSFk7sramurr6AwH+kOSyIoH7YvnE8mC24go5oet1y5nkiRm9eO7cufUpJOkpF5JkBzo9MhgMZvTuNB51b0YObo2+ZZc/fTbRNQK9yXGcjD0ynDx5cl9R/bntsntJNMkuh4pTQ6FQKFP5VaDCGOPegcSP37Iu6x2AjbcP7q7AuTa3+k315ZP4JO9qPl4pAjfhlsQiF2X7+8kUERSkvSWzT61PmmurxubGX0GRbAOVUlf0xdDE0BlexuI4TlFwYvmjCiQ/ilRQGQ6HrSz9+6Y+fXrOAfBpwotU7pkwYXJGVuo4TvmFEBxvu9ytFhW+B5Nc0svA/DETcyNGjx4diDbHHs+liWpeKOxS+Bcg8amv6uK+yZMnZ6Qe5gdf/pkAWev0pyrrHYCiWPR8ES3LgSH+5C/jerZ0q8sVqz+B4PnE+esxTb8ftEf6uVkg2i3tLZmhOTUhKxWvvfZaI4xOQ/KT5YpU8HAwGHqsvLw84486JkyYtL+BeQOpHW6zwuczZ1upsB2orKyMQ/XOJJcN8pnYP9L9Ax0MBk8S6B22y5xIJDJvIRQJT6ZT4MQN6zfchzTuMB3H8ZeVdXsIgpyaqOaFOXPmNENkepLLhkZbYnPHjRvXI528HKf8R9DMHy6UCVntAKhC1OC8HBjeT/El4+p+P7i1k6bSJnBvTRKDcY3+Oo0srND7Rgcg6J32IwCBx5u+eCMcDr+lwHlIZc96xeluXJc6TvmFjuOkfQCS4zj9g8HQdJ9x31AglSVi9Qp36rx58zancG3WqOhdgH6S5LLh0ZbYK+UTy9s8YXfq1Km+kBO6Bq7MRI7N/N9xfZjkj3AgPwpODD0zfvz4Nq9jHz9+fB+BzIHidNtlzZaiooJbACQ7kGjfgK9gYSgUOqCt6TuO43ec0I0CTbbyxpqsdgBa7tx5FAS72G/YU34Z8bd4NjRYfOXqhSKYk2Q1wCkNtw06LpvfU7oa6z7vD4HJQP032S5Le0Ui1X+C6m9SvLy3QO8WNR8EJwZ/5TjO0LbkVYEKEwwGxwad4IMC8yEU5yOV59mKFoieEIlE/mu7vr5df5EmRUoTsYa6oi+HnNAtoVBop1TSDgaDEzes/+KfCvwGYn8ztNTqY14E0KeTXig43u8LvOM4oR+m0qF0HKcoNDF0vt8XWAKId488c9CcOXNqRFOYGyMYqS5eDzmh68vLy/ulkLSUTyw/3MC8KcDPkKONP5DlSS/xuDsyd6tixwTmFADJhoraLQbfT7bONUiwlEf/WH/7rq93vfyjnDlEIhFjMNxNPxko0O5T5XJBeH64IhgMlUJxeUofEAwE5JcC+WXQCS2FSjWM+5aqb7nPp+tEpA6APxaLdTFqdnZFhonoIfP1ZSfZoTE7EIXR08Ph8Eu266k1kUjVMyEn9CcFfpjkUp8CV8DFpSEn9IILeVbE/W8sFlutqjFjupQEJD40LjrBACeopjQyknOisej5AX/gMECSzX3oJ8AjUHNryAk9DkVVTH1LXbdxAwD4/f5+IjIKrgkBepJK7uxMl23V86sfCTrlRwKa7LyOgAK/0Lj+NBgMPSsuZsfU/NeY2OexWCxeVFRUGothmIhOENUTXeietsuWiqx2AIpruj/b2G3TfIh6so7XGzq+/vaBB3S9fLUnW6OW/vjj9xr/MPB6BX6V4LJ+BrG5NXfv5JRd9NkXKSduiWuwJzT9E1tFkbfnIWyl4XD1j0NOqEaB69r42REQHQEVCFy4cWDbEwWBgQog0K3/q811XSsGJ1ZXh+farqBkXLgXC8zeAFLZmMuvwLECPRYq8Pu29aljcLHlNiz/ztf+ysKFCzc6jnOSqFRBkHyCrKCnApdCcKlP4vCZgq/eU2yZa0OIxprPDvgLRgBIZefRABRTVTDVJy4Ag4C/APGYu+XeVvPrN5bV4S+peK+l2Nd4DASLcmB4P+WXGGR8Tej2ijatvgEGryV+Hq57+eOYs/m2QXmwNlcOykS9q8GXtkuSCdWR6gqFfA+A9SV2AFYo3AnV1dU53/gDQCQSqQsU+P9PgPdtx5ILIpHI6zB6EpCf82Ny0cKFCzcq3O9A8bHtWLIt68+/5JIva2JRfAeCN2037G14ndRw506DPKuTCsQ0HjgBgtWJ49CDAn53Uf0dAzzbpjgzBdLDMlTvlzfdObBDzEiORKqejLtmDIB3rQUhmFlUXDg6F5/5JzJ37tx10Xh0IoBFWcjuXQGW2C5zIuFw+G8KOQZAreeZJTnpsqOIRCKfig8TALznfW7ybyhW2i4zYGkjoLIrV29oKiwKAViYA417Kq8AjF7iZZ10vfyjz13I/0HwZZJYBouRhQ13D7xKHxmc9qzxTGua3m93CIZkZORFUOYKZjfcPTCnts9srwUL5r2jcPdXyGXI7mjABwo5OhyunjZnzpy8fKzy8ssvf65wHS8bJAXmFBUXjlXoWtvlTSYSqfo7RMd7ODISh8gVMTeat3uRtFV1dfVHPr8Zq8BszzJR/KWktMtECDbaLi9g8SyAnueu3FxciCME+Jv19f6pvKAXNd4xcBcv66Tkks/eUuN+B6JfJImnCNDfNdY3L2u8a+AZetug4rbkowqpn97/yIZ7Bjxef8+AjK7/jrsyJcN1XwDgsfq7+k9JO7gcEIlEYpFI1R0KdwSg9wCernT4VIDLFe5ekUjVC7bLnq5IJFIXnl99siimIfFe7m2jqFHIRU5kwlH51EEKh8NvdS3tuh8EdyU5iKpNBHgHomPD4arbbJcx2+bNm7c5Eqk+BqI/ArApg0lvVMhZ4fnVJ86ePbsh/eQyw+oSGDl3dUNRv9XfhcgtOXCXn+xVrH73917XSdcL1/zLwBwGIx+kENMuavThpkL388bpAx6onz7wmLo/9N3hMhVVSN1d/fZuuLv/TxqnD1gqKi8A+J4A99dPz9wjBTFyYubrXgNi5Ommu3ca5nX9Z0skEvk0HAlf5A/4hghwbcbu5BQuoBEFzujdp9eQ6kj1HyKRSN4up9yR6vnVM4uKC4fIlomzm9NIqgmCB1TcUZFI1T0VqMhYI5ots2fPbgiHqy8xftlbgGeQ1hw0/QSqP95cu3l0OBz+p+2y2RQOhx8uKAwMgciNSGe0TtEA6D0Kd2QkUvUQcmyOoPW9r+UkxIHVP2m8p/87EPkjkMLsVovRNk4fcE/xBZ+/7GUuRRd9tnzj7YMPLC5oflgFxyX/hHYDcJaBnoUCHxqnD/gYwIcCWQdoQIE+zX/ESJ8PPXb46S0r9tPWcM/AnQU6ITOpfUupK/FKfWTwIXLGqg7ToG09/e56AL8NhUIHuS4OB1AuikOQykxvAFCsg8F8cRGOqf+FBfPnJttAJ+9tvVOvmDx58s2x5tgxruBUURwBQUHCDypcFSwC8FxBgf+BuXPnrrNdlkyoqqpaDGDqpEmTdonH9RSoTgOwbwofrYeiCkafrqmpqVy0aBEnF2710ksvfQng52PHjr2xoKDgOChOxZa9EpK1m3EF3hCRZ40PD1VVVefsyi1v/lS3U/M9A/aMG8wUaCo/XCsEeLOw15qDt3RcvNc4fcD3IHor4Mne3C0qcnWX8z7PyFBf4x8H/Bbw/BCR3xSfv+aXHueRCyQUCu0CYLjrygAAJYCWAIABNruQOhH3Q1VdFolEMjccnseOPvroLg01DaMUup+75djjElEpANCkgpVGdaW/0P/PZI3+2LFjS0XkW3/k/X5/NNFRyWPGjCn2+XytzstZuHBhVp/7Tp48uW+8Ob6viu4LoLeqbL0BcDeoyIci+r6q/jPJCJGMGzeu+47eGDBgQH1lZWVLNstk2+TJk7u2tLTsDfj2NdDdFFoCNQEVbTCKlWp05dY6TfhvcsqUKWW1tbXf2oGyS5cuLdk8kCunOgAAoHcOLWwuqLteBZchB0YodkhwXfE5a7K2Re/GRwZ3L2pp+jGASwFk6oS8sIG5oPDc1UszkZje2bOsuTDwkUK6e1wdzSK+fYrO+Wy5x/kQEXVoOdcB2Kb+voEH+MS9X1PbACTbYmqM0+Ws1a9kM1N9rF/XpiaZCuBMAOPQ9u/PVeBF48o9Red9/vdMxtZwf/+rBPhdNupBBJVFZ6/JubPbiYjySc52AABAZ8HXtLnfDwH5NYCBtuP5GsGqJl/R/j3OWLXJRvZND/fbXWMyAYKDBThUFUMg3xodcCH4WFz9L4Bqjcvs4vPXrMp0LPrI4KKmWNOHADw7OOmb5RJjRhb9aPWyLOVHRNTh5HQHYBt9rF/XxhY9XyCXAMjIGeCZIEBl4Y/WniySGzM7tQL+ul369whAS+PReGMXbNgg53q/Y1jjA32vhUh2Ty1UPFR89tqzsponEVEHkhcdgG20AqZ5UL8jVfALAIfYjgcAILix+My1Xk98y1lN9/cepj7fWwCyvSlRbVFpoJ+c9GleHxhERGRLXnUAttf44IAJMO40AMcDaPP515kk0AuKzlz3R9t1km2qkKY/9Y1AZYKV/CFTu5y55hnb9UBElI/ytgOwjc6Cr7muX9A1+K5AHShGWShXXESOL/rh2udt10c2NT3c91wV3GsrfxE8U/TDdVNt1wMRUT7K+w7AN9U8ulOvArflIBgz3HV1mAjOBeBLO+HkGgXu1KIfbvib7TrIhobH+h0irkaQ/aH/7W0o+sG6vrkyB4OIKJ90uA7ANzX9qc/tELksS9nFFXpO8Q/WP2y73F6qf6j3QJ/fvAFgJ9uxwNVhRWes51GxRERtZPUsgGwojOsvIfg0S+cF+ETkwabH+15pu9xe0VmDik1AnoVgpxw4nwHqlzG264SIKB91+A6A/GhDrQCXZvHkQAH05qbH+tyus5LsS55n9LF+XZubm58TwUHWT2fc8moURc4f3UpElIs6/COAbZqe6DMbwFHZzFMhb8CVU4q/v/ZD2+VPuyxPduvRogV/UyA37rgFy42rpxacvuFN26EQEeWjDj8CsI2K/yII6rI5PC2iB4vPfbP5yb7H2y5/Ouof7z2gGQXzVTDG9pA/BDEI7iiMmwPY+BMRtV+nGQEAgOYne5+mIk/YyFuAx6KQn5ZMW5dXQ9YNM/seZtSdAciulkNRKP4uaq4q/N7ad2zXCxFRvutUHQAAaJrZ+34AZ1vKfjMgvyzsv366BBGzXReJ6Cz4Wtzev1DFtbB7KmO9AH8VMbcUnLLuLdv1QkTUUXS6DoDOGlTc7Da9DmAfi2G8BTFXFZ287iXb9bEjTU/22x0m/igE4yxk7wJ4X4FFRuS5gi6BF+To1Q2264SIqKPpdB0AAGia1Xs4FP8GUGI1EMF/RHFzQd8NlbkwIlA7q3+fgBv9BUTOB7xfwaCCfxtXfg+BQN3mOHRtsfG9Kyetr7NdF0REHV2n7AAAQPOsnicrZGZu1IF8CLh3xGL+p2zMEdDnepe2NLmXqciVwLeOFPZKsxj34MITN76d7fISEVFONH72NFf2ukqB39mOYzsuVF4D3MooCmaUnrRmvZeZtczqPdo17jlQmYZsj4ao/LTopA03ZzVPIiL6n07dAQCAlsped6rgYttx7Cg0hb4uIgtVzSuFbuwVOWnj5nQS1DD8sfU9DnXFHAHBqQCG2CiYCuYXvvNFSCrg2sifiIjYAYBWwLTs3WsWgBNsx5KEC2AxgPdFZZUr+iFUVhnBZy58m6KCupKCpigANDcU9PIJBrg+3UnV7W9UdnON7i8q+8PyvAcF1mvcPbD4pI0f265QIqLOrNN3AACg6bk+QyUe54Ey3ou5aiYXn7AhbDsQIqLOzub67tzhut9hV8h7Cvyk+Hg2/kREuYAdAAAGeoyyA+AphUwvOvaLP9iOg4iItuj0HQC9D4EWg7G24+jQVJ8tbPnyEtthEBHRVzp9ByA6oNd+gNvFdhwd2NyCwMZT5FjEbQdCRERf6fQdAMA9iM//PfO3gpJuJ0pwY7PtQIiI6OvYATAYYTuEDknxQoFvIxt/IqIc1ek7AGowDKq2w+hQRHF3oGTT5blwvgEREe1Yp+8AALoTHwFkTFwFPy6csulO24EQEVFinb4DIEAfdgDSJ8BqKKYFpmyabzsWIiJKrtN3AGDAFQDpq/LHA9+TI9evsR0IERGlhh0AUR5Ik6ZAFFPlqPUbbcdBRESpYwdAwBmA6TKbG2yHQEREbcMOgIGyC5CWGvk/cKkfEVGe6fQdAAHqVdDDdhx5S7HOdghERNR2nb4DoKKfABhkO458JSLv2I6BiIjartN3ACD4GMAY22HkL/2v7QiIiKjtOn0HQCEfi2R1EsDTKvqBKI4EZF/b5U+fVtuOgIiI2q7TdwBE3MVZ2gjoS1W9sDBY99TW//5F48Ieu/hi0SMFMkWBwwD0sl0fbbTZr7Wv2w6CiIjartPvgde8oGSkqLznYRYKyKxYLHpFl/LGz1q9SCEtC0pGCOQwQPYHdC8AewPoabuOEhRtRsHEutNsR0FERG3X6TsAqjCxl0s3AijzIPlX4OInAaf2tXbH90pJ32jcDDZwd3FhdhbRvqLopUBPQLptvcoPoBRAEyBNgAYBmCxUXnlgYh0fARAR5aFO3wEAgOjLpc8DODqDSb4iwE3+8bWz7ZSn5DpAKrzMQ4APfeNqh4qAOykSEeWhTj8HAAAUeEFE0+0AfAboDBfyaOG4Oi8fKSTlH1f3m9irXQ+EylFe5eGq3uFn409ElLc4AgBA3+jaPxaVT9D2DtFSAcJq9C/+Q+urc+luWF9FcUxLXgIw3oPkP/W31O0hQTTZLicREbUPOwBbRV8peQ6CY1p521XIJwJdIYrlMPqKL65hGdew2nbciejC3qUx0/RXAOUZTVdwfsGYunttl4+IiNqPHYCtmt8oGSWujAUAKFqMaK2qbnYhnxVsrFuZr/vd64sojHYvfUBET89MgnjP363uABmFFttlIyKi9mMHoJNoea3kfBG9BUCXNJKJqdHDCg5u+Jft8hARUXq8XypGOaFgTN0f/a47DNC/QIB2vQxuZuNPRNQxcASgE4r9q+REuO6NKjI05Q8J3vZ3rz9Y9sjPRyFERPR17AB0Uqow8X91OVIF1wA4OMnlG+ISP7TowOYPbMdNRESZwQ4AoWVR8aFGZRqAkwH0/cbbTWo0FDigsd27GRIRUe5hB4D+R2fBhz26HOC6ElTRQ6DYB9Bf+Ec3zrIdGxERERERERERERERERERERERERERERERERERERERERERERERERERERERERERERERERERERERERERERERERERERERERERERERERERERERERERERERERERERERERERERERERERERERERERERERERERERERERERERERERERERERERERERERERERERERERERERERERERERERERERERERERERERERERERERERERERERERERERERERERERERFR7vt/Zb1Mgb55twcAAAAASUVORK5CYII=;" vertex="1" parent="1">
          <mxGeometry x="-40" y="174.5" width="150" height="75" as="geometry" />
        </mxCell>
        <mxCell id="eMT0vumo1_mFRorj7Jos-29" value="" style="outlineConnect=0;dashed=0;verticalLabelPosition=bottom;verticalAlign=top;align=center;html=1;shape=mxgraph.aws3.ec2_compute_container;fillColor=#F58534;gradientColor=none;" vertex="1" parent="1">
          <mxGeometry x="-80" y="117.5" width="60" height="34.5" as="geometry" />
        </mxCell>
        <mxCell id="eMT0vumo1_mFRorj7Jos-30" value="ECS Service" style="outlineConnect=0;dashed=0;verticalLabelPosition=bottom;verticalAlign=top;align=center;html=1;shape=mxgraph.aws3.ecs;fillColor=#F58534;gradientColor=none;" vertex="1" parent="1">
          <mxGeometry x="-140" y="30" width="72" height="67.5" as="geometry" />
        </mxCell>
        <mxCell id="eMT0vumo1_mFRorj7Jos-32" value="http://loki:3100" style="text;html=1;strokeColor=none;fillColor=none;align=center;verticalAlign=middle;whiteSpace=wrap;rounded=0;" vertex="1" parent="1">
          <mxGeometry x="-195" y="182.5" width="60" height="30" as="geometry" />
        </mxCell>
        <mxCell id="eMT0vumo1_mFRorj7Jos-33" value="S3 Bucket" style="outlineConnect=0;dashed=0;verticalLabelPosition=bottom;verticalAlign=top;align=center;html=1;shape=mxgraph.aws3.s3;fillColor=#E05243;gradientColor=none;" vertex="1" parent="1">
          <mxGeometry x="-403.24" y="430" width="76.5" height="93" as="geometry" />
        </mxCell>
      </root>
    </mxGraphModel>
  </diagram>
</mxfile>
